<?xml version="1.0" encoding="utf-8"?>
<!-- Generator: Adobe Illustrator 27.1.1, SVG Export Plug-In . SVG Version: 6.00 Build 0)  -->
<svg version="1.1" id="Capa_1" xmlns="http://www.w3.org/2000/svg" xmlns:xlink="http://www.w3.org/1999/xlink" x="0px" y="0px"
	 viewBox="0 0 24 24" style="enable-background:new 0 0 24 24;" xml:space="preserve">
<style type="text/css">
	.st0{fill:#FFA400;}
</style>
<path class="st0" d="M20,13.2V13c0-1.1-0.2-2.1-0.6-3.1c-0.4-1-1-1.9-1.8-2.6c-0.9-0.9-2-1.5-3.2-1.9h0C13.5,5.1,12.6,5,11.8,5
	C9.7,5.1,7.7,6,6.3,7.5C4.8,9.1,4,11.1,4,13.2c-0.7,0.2-1.2,0.7-1.6,1.3c-0.4,0.6-0.5,1.3-0.4,2c0.1,0.7,0.5,1.3,1,1.8
	C3.6,18.8,4.3,19,5,19h14c0.7,0,1.4-0.2,1.9-0.7c0.5-0.5,0.9-1.1,1-1.8c0.1-0.7,0-1.4-0.4-2C21.2,13.9,20.7,13.4,20,13.2z M19,17H5
	c-0.3,0-0.5-0.1-0.7-0.3C4.1,16.5,4,16.3,4,16c0-0.3,0.1-0.5,0.3-0.7C4.5,15.1,4.7,15,5,15h2c0.3,0,0.5-0.1,0.7-0.3
	C7.9,14.5,8,14.3,8,14c0-0.3-0.1-0.5-0.3-0.7C7.5,13.1,7.3,13,7,13H6c0-1,0.3-2,0.9-2.9C7.4,9.2,8.1,8.4,9,7.9V11
	c0,0.3,0.1,0.5,0.3,0.7C9.5,11.9,9.7,12,10,12c0.3,0,0.5-0.1,0.7-0.3c0.2-0.2,0.3-0.4,0.3-0.7V7.1C11.3,7,11.5,7,11.8,7H12
	c0.3,0,0.7,0,1,0.1V11c0,0.3,0.1,0.5,0.3,0.7c0.2,0.2,0.4,0.3,0.7,0.3c0.3,0,0.5-0.1,0.7-0.3c0.2-0.2,0.3-0.4,0.3-0.7V7.8
	c0.4,0.2,0.8,0.5,1.2,0.9c0.6,0.6,1,1.2,1.3,2c0.3,0.7,0.5,1.5,0.5,2.3h-1c-0.3,0-0.5,0.1-0.7,0.3C16.1,13.5,16,13.7,16,14
	c0,0.3,0.1,0.5,0.3,0.7c0.2,0.2,0.4,0.3,0.7,0.3h2c0.3,0,0.5,0.1,0.7,0.3c0.2,0.2,0.3,0.4,0.3,0.7c0,0.3-0.1,0.5-0.3,0.7
	C19.5,16.9,19.3,17,19,17z"/>
</svg>
