<?xml version="1.0" encoding="utf-8"?>
<!-- Generator: Adobe Illustrator 27.1.1, SVG Export Plug-In . SVG Version: 6.00 Build 0)  -->
<svg version="1.1" id="Capa_1" xmlns="http://www.w3.org/2000/svg" xmlns:xlink="http://www.w3.org/1999/xlink" x="0px" y="0px"
	 viewBox="0 0 24 24" style="enable-background:new 0 0 24 24;" xml:space="preserve">
<style type="text/css">
	.st0{fill:#FFA400;}
</style>
<path class="st0" d="M13.4,12l4.3-4.3C17.9,7.5,18,7.3,18,7c0-0.3-0.1-0.5-0.3-0.7C17.5,6.1,17.3,6,17,6s-0.5,0.1-0.7,0.3L12,10.6
	L7.7,6.3C7.5,6.1,7.3,6,7,6S6.5,6.1,6.3,6.3C6.1,6.5,6,6.7,6,7c0,0.3,0.1,0.5,0.3,0.7l4.3,4.3l-4.3,4.3c-0.1,0.1-0.2,0.2-0.2,0.3
	C6,16.7,6,16.9,6,17c0,0.1,0,0.3,0.1,0.4c0.1,0.1,0.1,0.2,0.2,0.3c0.1,0.1,0.2,0.2,0.3,0.2C6.7,18,6.9,18,7,18s0.3,0,0.4-0.1
	c0.1-0.1,0.2-0.1,0.3-0.2l4.3-4.3l4.3,4.3c0.1,0.1,0.2,0.2,0.3,0.2C16.7,18,16.9,18,17,18s0.3,0,0.4-0.1c0.1-0.1,0.2-0.1,0.3-0.2
	c0.1-0.1,0.2-0.2,0.2-0.3C18,17.3,18,17.1,18,17c0-0.1,0-0.3-0.1-0.4c-0.1-0.1-0.1-0.2-0.2-0.3L13.4,12z"/>
</svg>
