<?xml version="1.0" encoding="utf-8"?>
<!-- Generator: Adobe Illustrator 27.1.1, SVG Export Plug-In . SVG Version: 6.00 Build 0)  -->
<svg version="1.1" id="Capa_1" xmlns="http://www.w3.org/2000/svg" xmlns:xlink="http://www.w3.org/1999/xlink" x="0px" y="0px"
	 viewBox="0 0 24 24" style="enable-background:new 0 0 24 24;" xml:space="preserve">
<style type="text/css">
	.st0{fill:#FFA400;}
</style>
<path class="st0" d="M14.5,7c-0.8,0-1.6,0.2-2.2,0.7c-0.7,0.4-1.2,1.1-1.5,1.8c-0.3,0.7-0.4,1.5-0.2,2.3c0.2,0.8,0.5,1.5,1.1,2
	c0.6,0.6,1.3,0.9,2,1.1c0.8,0.2,1.6,0.1,2.3-0.2c0.7-0.3,1.4-0.8,1.8-1.5c0.4-0.7,0.7-1.4,0.7-2.2c0-1.1-0.4-2.1-1.2-2.8
	C16.6,7.4,15.6,7,14.5,7z M14.5,13c-0.4,0-0.8-0.1-1.1-0.3c-0.3-0.2-0.6-0.5-0.7-0.9c-0.2-0.4-0.2-0.8-0.1-1.2
	c0.1-0.4,0.3-0.7,0.5-1c0.3-0.3,0.6-0.5,1-0.5c0.4-0.1,0.8,0,1.2,0.1c0.4,0.2,0.7,0.4,0.9,0.7c0.2,0.3,0.3,0.7,0.3,1.1
	c0,0.5-0.2,1-0.6,1.4C15.5,12.8,15,13,14.5,13z M15.5,3h-2c-1.9,0-3.6,0.7-4.9,2.1C7.2,6.4,6.5,8.1,6.5,10v3h-1
	c-0.3,0-0.5,0.1-0.7,0.3c-0.2,0.2-0.3,0.4-0.3,0.7s0.1,0.5,0.3,0.7C5,14.9,5.2,15,5.5,15h1v2h-4c-0.3,0-0.5,0.1-0.7,0.3
	c-0.2,0.2-0.3,0.4-0.3,0.7v2c0,0.3,0.1,0.5,0.3,0.7C2,20.9,2.2,21,2.5,21s0.5-0.1,0.7-0.3c0.2-0.2,0.3-0.4,0.3-0.7v-1h12
	c1.9,0,3.6-0.7,4.9-2.1c1.3-1.3,2.1-3.1,2.1-4.9v-2c0-1.9-0.7-3.6-2.1-4.9C19.1,3.7,17.4,3,15.5,3z M20.5,12c0,0.7-0.1,1.3-0.4,1.9
	c-0.3,0.6-0.6,1.2-1.1,1.6c-0.5,0.5-1,0.8-1.6,1.1S16.2,17,15.5,17h-7v-7C8.5,8.7,9,7.4,10,6.5C10.9,5.5,12.2,5,13.5,5h2
	c0.7,0,1.3,0.1,1.9,0.4C18,5.6,18.6,6,19,6.5c0.5,0.5,0.8,1,1.1,1.6c0.3,0.6,0.4,1.3,0.4,1.9V12z"/>
</svg>
