<?xml version="1.0" encoding="utf-8"?>
<!-- Generator: Adobe Illustrator 27.1.1, SVG Export Plug-In . SVG Version: 6.00 Build 0)  -->
<svg version="1.1" id="Capa_1" xmlns="http://www.w3.org/2000/svg" xmlns:xlink="http://www.w3.org/1999/xlink" x="0px" y="0px"
	 viewBox="0 0 422.9 422.9" style="enable-background:new 0 0 422.9 422.9;" xml:space="preserve">
<style type="text/css">
	.st0{fill:#FFA400;}
</style>
<path class="st0" d="M351.5,131.5h-20v-60c0-15.9-6.3-31.2-17.6-42.4c-11.3-11.3-26.5-17.6-42.4-17.6h-200
	C55.5,11.5,40.3,17.8,29,29S11.5,55.5,11.5,71.5v240c0,3.9,1.2,7.8,3.4,11.1c2.2,3.3,5.3,5.8,9,7.3c2.4,1.1,5,1.7,7.6,1.6
	c2.6,0,5.2-0.5,7.7-1.5c2.4-1,4.7-2.5,6.5-4.3l56.2-56.4h29.6v28.8c0,15.9,6.3,31.2,17.6,42.4c11.3,11.3,26.5,17.6,42.4,17.6h138.4
	l47.4,47.6c1.9,1.9,4.1,3.3,6.5,4.3c2.4,1,5,1.5,7.7,1.5c2.6,0.1,5.2-0.5,7.6-1.6c3.7-1.5,6.8-4,9-7.3c2.2-3.3,3.4-7.1,3.4-11.1
	v-200c0-15.9-6.3-31.2-17.6-42.4C382.6,137.8,367.4,131.5,351.5,131.5z M131.5,191.5v37.8H93.7c-2.6,0-5.2,0.5-7.7,1.5
	c-2.4,1-4.7,2.5-6.5,4.3l-28,28.2V71.5c0-5.3,2.1-10.4,5.9-14.1c3.8-3.8,8.8-5.9,14.1-5.9h200c5.3,0,10.4,2.1,14.1,5.9
	c3.8,3.8,5.9,8.8,5.9,14.1v60h-100c-15.9,0-31.2,6.3-42.4,17.6C137.8,160.3,131.5,175.5,131.5,191.5z M371.5,343.3l-20-20
	c-1.9-1.9-4.1-3.4-6.5-4.4c-2.4-1-5.1-1.6-7.7-1.6H191.5c-5.3,0-10.4-2.1-14.1-5.9s-5.9-8.8-5.9-14.1V191.5c0-5.3,2.1-10.4,5.9-14.1
	s8.8-5.9,14.1-5.9h160c5.3,0,10.4,2.1,14.1,5.9s5.9,8.8,5.9,14.1V343.3z"/>
</svg>
