<?xml version="1.0" encoding="utf-8"?>
<!-- Generator: Adobe Illustrator 27.1.1, SVG Export Plug-In . SVG Version: 6.00 Build 0)  -->
<svg version="1.1" id="Capa_1" xmlns="http://www.w3.org/2000/svg" xmlns:xlink="http://www.w3.org/1999/xlink" x="0px" y="0px"
	 viewBox="0 0 24 24" style="enable-background:new 0 0 24 24;" xml:space="preserve">
<style type="text/css">
	.st0{fill:#FFA400;}
</style>
<path class="st0" d="M19.1,4.9c-0.9-1-2-1.7-3.2-2.2c-1.2-0.5-2.5-0.8-3.9-0.8c-1.3,0-2.6,0.2-3.9,0.7C6.9,3.1,5.7,3.9,4.8,4.8
	S3.1,6.9,2.6,8.1S1.9,10.6,1.9,12c0,1.3,0.3,2.6,0.8,3.9C3.2,17,4,18.1,4.9,19.1c0.9,1,2,1.7,3.2,2.2s2.5,0.8,3.9,0.8
	c1.3,0,2.6-0.2,3.9-0.7c1.2-0.5,2.3-1.2,3.3-2.2c0.9-0.9,1.7-2.1,2.2-3.3c0.5-1.2,0.8-2.5,0.7-3.9c0-1.3-0.3-2.6-0.8-3.9
	C20.8,7,20,5.9,19.1,4.9z M18.2,7h-5.5l2.3-2.3C16.3,5.2,17.4,6,18.2,7z M9,4.6c1.2-0.5,2.6-0.7,3.9-0.5L9,7.9V4.6z M7,5.8v5.5
	L5.2,9.4L4.7,8.9C5.2,7.7,6,6.6,7,5.8z M4.6,15c-0.5-1.2-0.7-2.6-0.5-3.9L7.9,15H4.6z M5.8,17h5.5l-2.3,2.4C7.7,18.8,6.6,18,5.8,17z
	 M15,19.4c-1.2,0.5-2.6,0.7-3.9,0.5l3.9-3.9V19.4z M15,13.2L13.2,15h-2.5L9,13.2v-2.5L10.8,9h2.5l1.8,1.8V13.2z M17,18.2v-5.5
	l2.4,2.3C18.8,16.3,18,17.4,17,18.2L17,18.2z M16.1,9h3.3c0.5,1.2,0.7,2.6,0.5,3.9L16.1,9z"/>
</svg>
