<?xml version="1.0" encoding="utf-8"?>
<!-- Generator: Adobe Illustrator 22.0.1, SVG Export Plug-In . SVG Version: 6.00 Build 0)  -->
<svg version="1.1" id="Capa_1" xmlns="http://www.w3.org/2000/svg" xmlns:xlink="http://www.w3.org/1999/xlink" x="0px" y="0px"
	 viewBox="0 0 30 30" style="enable-background:new 0 0 30 30;" xml:space="preserve">
<style type="text/css">
	.st0{fill:none;}
	.st1{fill:#FFFFFF;}
</style>
<title>icono-facebook-color</title>
<desc>Created with Sketch.</desc>
<g>
	<path class="st0" d="M13.4,10.4c0.2-0.6,0.5-1.1,0.9-1.5C14,9.3,13.7,9.8,13.4,10.4z"/>
	<path class="st0" d="M14.4,8.9c0.6-0.6,1.4-1,2.3-1.1C15.7,7.9,15,8.3,14.4,8.9z"/>
	<path class="st1" d="M15,3C8.4,3,3,8.4,3,15c0,6,4.4,11,10.1,11.9v-8.4h-3V15h3v-2.6c0-0.8,0.1-1.4,0.3-2c0.2-0.6,0.5-1.1,0.9-1.5
		c0.6-0.6,1.4-1,2.3-1.1c0.3-0.1,0.6-0.1,1-0.1c1.3,0,2.7,0.2,2.7,0.2v3h-1.5c-1.5,0-2,0.9-2,1.9V15h3.3l-0.5,3.5h-2.8v8.4
		C22.6,26,27,21,27,15C27,8.4,21.6,3,15,3z"/>
</g>
</svg>
