<?xml version="1.0" encoding="utf-8"?>
<!-- Generator: Adobe Illustrator 27.1.1, SVG Export Plug-In . SVG Version: 6.00 Build 0)  -->
<svg version="1.1" id="Capa_1" xmlns="http://www.w3.org/2000/svg" xmlns:xlink="http://www.w3.org/1999/xlink" x="0px" y="0px"
	 viewBox="0 0 467.9 467.9" style="enable-background:new 0 0 467.9 467.9;" xml:space="preserve">
<style type="text/css">
	.st0{fill:#FFA400;}
</style>
<path class="st0" d="M233.9,373.9c4,0,7.8-1.2,11.1-3.4c3.3-2.2,5.9-5.3,7.4-9c1.5-3.7,1.9-7.7,1.1-11.6c-0.8-3.9-2.7-7.4-5.5-10.2
	c-2.8-2.8-6.4-4.7-10.2-5.5s-7.9-0.4-11.6,1.1c-3.7,1.5-6.8,4.1-9,7.4c-2.2,3.3-3.4,7.2-3.4,11.1c0,5.3,2.1,10.4,5.9,14.1
	S228.6,373.9,233.9,373.9z M333.9,373.9c4,0,7.8-1.2,11.1-3.4c3.3-2.2,5.9-5.3,7.4-9c1.5-3.7,1.9-7.7,1.1-11.6
	c-0.8-3.9-2.7-7.4-5.5-10.2c-2.8-2.8-6.4-4.7-10.2-5.5c-3.9-0.8-7.9-0.4-11.6,1.1c-3.7,1.5-6.8,4.1-9,7.4c-2.2,3.3-3.4,7.2-3.4,11.1
	c0,5.3,2.1,10.4,5.9,14.1S328.6,373.9,333.9,373.9z M333.9,293.9c4,0,7.8-1.2,11.1-3.4c3.3-2.2,5.9-5.3,7.4-9
	c1.5-3.7,1.9-7.7,1.1-11.6c-0.8-3.9-2.7-7.4-5.5-10.2c-2.8-2.8-6.4-4.7-10.2-5.5c-3.9-0.8-7.9-0.4-11.6,1.1s-6.8,4.1-9,7.4
	c-2.2,3.3-3.4,7.2-3.4,11.1c0,5.3,2.1,10.4,5.9,14.1S328.6,293.9,333.9,293.9z M233.9,293.9c4,0,7.8-1.2,11.1-3.4
	c3.3-2.2,5.9-5.3,7.4-9c1.5-3.7,1.9-7.7,1.1-11.6s-2.7-7.4-5.5-10.2c-2.8-2.8-6.4-4.7-10.2-5.5c-3.9-0.8-7.9-0.4-11.6,1.1
	c-3.7,1.5-6.8,4.1-9,7.4c-2.2,3.3-3.4,7.2-3.4,11.1c0,5.3,2.1,10.4,5.9,14.1S228.6,293.9,233.9,293.9z M373.9,53.9h-20v-20
	c0-5.3-2.1-10.4-5.9-14.1c-3.8-3.8-8.8-5.9-14.1-5.9s-10.4,2.1-14.1,5.9c-3.8,3.8-5.9,8.8-5.9,14.1v20h-160v-20
	c0-5.3-2.1-10.4-5.9-14.1c-3.8-3.8-8.8-5.9-14.1-5.9c-5.3,0-10.4,2.1-14.1,5.9c-3.8,3.8-5.9,8.8-5.9,14.1v20h-20
	c-15.9,0-31.2,6.3-42.4,17.6S33.9,98,33.9,113.9v280c0,15.9,6.3,31.2,17.6,42.4c11.3,11.3,26.5,17.6,42.4,17.6h280
	c15.9,0,31.2-6.3,42.4-17.6c11.3-11.3,17.6-26.5,17.6-42.4v-280c0-15.9-6.3-31.2-17.6-42.4C405.1,60.3,389.8,53.9,373.9,53.9z
	 M393.9,393.9c0,5.3-2.1,10.4-5.9,14.1s-8.8,5.9-14.1,5.9h-280c-5.3,0-10.4-2.1-14.1-5.9c-3.8-3.8-5.9-8.8-5.9-14.1v-180h320V393.9z
	 M393.9,173.9h-320v-60c0-5.3,2.1-10.4,5.9-14.1c3.8-3.8,8.8-5.9,14.1-5.9h20v20c0,5.3,2.1,10.4,5.9,14.1c3.8,3.8,8.8,5.9,14.1,5.9
	c5.3,0,10.4-2.1,14.1-5.9c3.8-3.8,5.9-8.8,5.9-14.1v-20h160v20c0,5.3,2.1,10.4,5.9,14.1c3.8,3.8,8.8,5.9,14.1,5.9s10.4-2.1,14.1-5.9
	c3.8-3.8,5.9-8.8,5.9-14.1v-20h20c5.3,0,10.4,2.1,14.1,5.9c3.8,3.8,5.9,8.8,5.9,14.1V173.9z M133.9,293.9c4,0,7.8-1.2,11.1-3.4
	s5.9-5.3,7.4-9c1.5-3.7,1.9-7.7,1.1-11.6c-0.8-3.9-2.7-7.4-5.5-10.2c-2.8-2.8-6.4-4.7-10.2-5.5c-3.9-0.8-7.9-0.4-11.6,1.1
	c-3.7,1.5-6.8,4.1-9,7.4c-2.2,3.3-3.4,7.2-3.4,11.1c0,5.3,2.1,10.4,5.9,14.1C123.5,291.8,128.6,293.9,133.9,293.9z M133.9,373.9
	c4,0,7.8-1.2,11.1-3.4c3.3-2.2,5.9-5.3,7.4-9c1.5-3.7,1.9-7.7,1.1-11.6c-0.8-3.9-2.7-7.4-5.5-10.2c-2.8-2.8-6.4-4.7-10.2-5.5
	c-3.9-0.8-7.9-0.4-11.6,1.1c-3.7,1.5-6.8,4.1-9,7.4c-2.2,3.3-3.4,7.2-3.4,11.1c0,5.3,2.1,10.4,5.9,14.1
	C123.5,371.8,128.6,373.9,133.9,373.9z"/>
</svg>
