<?xml version="1.0" encoding="utf-8"?>
<!-- Generator: Adobe Illustrator 27.1.1, SVG Export Plug-In . SVG Version: 6.00 Build 0)  -->
<svg version="1.1" id="Capa_1" xmlns="http://www.w3.org/2000/svg" xmlns:xlink="http://www.w3.org/1999/xlink" x="0px" y="0px"
	 viewBox="0 0 315.2 106.7" style="enable-background:new 0 0 315.2 106.7;" xml:space="preserve">
<style type="text/css">
	.st0{fill-rule:evenodd;clip-rule:evenodd;fill:#FFA400;}
</style>
<g>
	<g>
		<path class="st0" d="M216.5,3.9h13.3v19h-5c-4.2,0-8.2,0.5-12,1.6c-3.7,1.2-6.8,3.1-9.1,5.7c-2.5,2.7-3.5,6-3.5,10.2
			c0,5,1.1,9,3.1,11.9c2.2,2.9,5,4.8,8.5,5.9c3.7,1.1,7.9,1.6,12.6,1.6h5.3v18.6h-19c-6.3,0-11.6-1.2-16-3.7
			c-4.5-2.4-8-5.6-10.7-9.5c-2.7-3.8-4.8-7.9-6-12.3c-1.2-4.2-1.9-8.3-2-12.1c0-6.9,1.8-13.3,5-19c3.3-5.7,7.9-10.1,14.1-13.2
			C201.3,5.5,208.3,3.9,216.5,3.9"/>
		<path class="st0" d="M167.6,22.5h-20.1c-6,0-10.4,1.9-13.7,5.7c-3.1,3.9-4.7,8.4-4.7,13.9c0.1,3.4,0.9,6.5,2.4,9.5
			c1.4,3,3.5,5.4,6.2,7.2c2.7,1.8,6,2.7,9.8,2.7c4.2,0,8-0.8,11.7-2.6c3.7-1.8,6.5-4.2,8.4-7.5v20.7c-4.2,4.9-11,7.3-20.4,7.3
			c-6.4,0-12.2-1-17.2-2.9c-5-2-9.2-4.8-12.8-8.3c-3.4-3.5-6-7.9-7.7-12.8c-1.8-4.9-2.6-10.3-2.6-16.2c0-4.5,0.7-9,2.2-13.2
			c1.6-4.2,3.9-8,7.1-11.4c3.3-3.4,7.2-6,12.1-7.9c4.8-2,10.5-3,16.8-3h22.5L167.6,22.5L167.6,22.5z"/>
		<path class="st0" d="M78.9,3.9c7.6,0,12.9,1.5,16.2,4.4c3.1,2.9,4.7,7.6,4.7,14.3v55.9h-24V30.6c0-2.9-0.1-4.9-0.4-5.9
			c-0.3-0.9-0.8-1.6-1.6-1.9c-1-0.1-2.7-0.3-5.4-0.3H56.9v55.9H34.8V3.9H78.9z"/>
		<rect x="2.1" y="3.9" class="st0" width="21.9" height="21.8"/>
		<rect x="2.1" y="34.4" class="st0" width="21.9" height="44.1"/>
		<rect x="154.3" y="31.2" class="st0" width="19.8" height="19.7"/>
		<path class="st0" d="M275,1.8c6.8,0,13.2,1.8,19,5.3c6,3.5,10.6,8.3,14,14.4c3,5,4.6,10.5,5.2,16h-22.5c-0.4-1.8-1-3.3-1.9-4.9
			c-1.4-2.4-3.4-4.5-5.8-6c-2.5-1.5-5-2.3-7.9-2.3c-4.5,0-8.3,1.6-11.4,4.9c-2.5,2.5-3.9,5.2-4.5,8.3h-22.4c0.4-5.6,2-11,5-16
			c3.4-6,8.2-10.9,14-14.4C261.7,3.6,268.1,1.8,275,1.8 M313.2,44.6c-0.5,5.7-2.2,11-5.2,16c-3.4,6.1-8,10.9-14,14.4
			c-5.8,3.5-12.2,5.3-19,5.3c-6.9,0-13.3-1.8-19.3-5.3c-5.8-3.5-10.6-8.3-14-14.4c-2.8-5-4.6-10.3-5-16h22.4c0.4,1.6,1,3.4,1.8,4.9
			c1.5,2.6,3.5,4.6,6,6.1c2.5,1.5,5.3,2.2,8.2,2.2c4.3,0,8-1.6,11.1-4.9c2.3-2.4,3.8-5.2,4.3-8.3H313.2z"/>
	</g>
	<g>
		<path d="M13.4,97.2H7l-1.5,7.3H2.1l3.4-16.4h3.4l-1.3,6.3h6.4l1.3-6.3h3.4l-3.4,16.4h-3.4L13.4,97.2z"/>
		<path d="M23.1,96L20,95.8c0.4-1.1,1-1.9,1.9-2.5s2.1-0.9,3.6-0.9c1.5,0,2.7,0.3,3.4,0.9c0.7,0.6,1.1,1.4,1.1,2.3
			c0,0.4,0,0.7-0.1,1.1c-0.1,0.4-0.3,1.5-0.7,3.2c-0.3,1.4-0.5,2.4-0.5,3c0,0.5,0.1,1.1,0.3,1.7h-3.1c-0.1-0.4-0.2-0.9-0.2-1.3
			c-0.5,0.5-1,0.9-1.6,1.2c-0.6,0.3-1.2,0.4-1.9,0.4c-1,0-1.8-0.3-2.4-1c-0.6-0.6-1-1.5-1-2.5c0-1.1,0.4-2,1.1-2.7
			c0.7-0.7,2-1.1,3.8-1.2c1.5-0.1,2.6-0.3,3.1-0.5c0.1-0.5,0.2-0.8,0.2-1.1c0-0.3-0.1-0.6-0.4-0.9c-0.3-0.2-0.7-0.3-1.2-0.3
			c-0.6,0-1,0.1-1.4,0.4C23.5,95.3,23.3,95.6,23.1,96z M26.2,99c-0.2,0.1-0.5,0.1-0.8,0.1c-1.6,0.2-2.7,0.5-3.2,0.9
			c-0.4,0.3-0.5,0.6-0.5,1.1c0,0.4,0.1,0.7,0.4,0.9c0.3,0.3,0.6,0.4,1.1,0.4c0.5,0,0.9-0.1,1.4-0.4c0.4-0.2,0.8-0.5,1-0.9
			c0.2-0.4,0.4-0.9,0.6-1.7L26.2,99z"/>
		<path d="M30.8,104.6l0.5-2.2l6.5-7.2h-5.3l0.5-2.5h9.3L42,94.6l-6.6,7.4h5.7l-0.5,2.6H30.8z"/>
		<path d="M49.3,104.6l3.4-16.4h12.2l-0.6,2.7h-8.8l-0.8,3.7h8.5l-0.6,2.7h-8.5l-1,4.5h9.6l-0.6,2.7H49.3z"/>
		<path d="M64.5,104.6L68,88.1h3.2l-3.4,16.4H64.5z"/>
		<path d="M86.8,104.6h-3.2L83,90.8l-2.6,13.7h-3.1l3.4-16.4h4.8l0.5,11.5l5.6-11.5h4.9l-3.4,16.4H90l3.2-13.6L86.8,104.6z"/>
		<path d="M98.9,92.7h3.2l-1.5,7.1c-0.2,0.8-0.3,1.4-0.3,1.6c0,0.3,0.1,0.6,0.4,0.9c0.3,0.2,0.6,0.4,1,0.4c0.3,0,0.6-0.1,0.8-0.2
			c0.3-0.1,0.6-0.3,0.9-0.5c0.3-0.2,0.6-0.5,0.8-0.8c0.2-0.3,0.4-0.7,0.6-1.1c0.1-0.3,0.3-0.9,0.5-1.7l1.2-5.7h3.2l-2.5,11.9h-3
			l0.3-1.6c-1.3,1.3-2.7,1.9-4.3,1.9c-1,0-1.7-0.3-2.3-0.8c-0.6-0.6-0.8-1.3-0.8-2.3c0-0.4,0.1-1.2,0.4-2.5L98.9,92.7z"/>
		<path d="M113,92.7h3l-0.3,1.5c0.8-0.7,1.5-1.1,2.1-1.4c0.7-0.3,1.4-0.4,2.1-0.4c1,0,1.8,0.3,2.3,0.8c0.6,0.6,0.8,1.3,0.8,2.2
			c0,0.4-0.1,1.2-0.4,2.4l-1.4,6.7h-3.2l1.4-6.8c0.2-1,0.3-1.6,0.3-1.8c0-0.4-0.1-0.7-0.4-1c-0.2-0.2-0.6-0.4-1-0.4
			c-0.5,0-1,0.2-1.6,0.6c-0.6,0.4-1,0.9-1.4,1.6c-0.2,0.5-0.5,1.4-0.8,2.8l-1,4.9h-3.2L113,92.7z"/>
		<path d="M135.5,104.6h-3l0.3-1.3c-0.6,0.6-1.2,1-1.7,1.2c-0.6,0.2-1.2,0.4-1.9,0.4c-1.2,0-2.2-0.4-3-1.3s-1.1-2.1-1.1-3.7
			c0-1.9,0.5-3.6,1.6-5.2c1.1-1.5,2.5-2.3,4.3-2.3c1.6,0,2.8,0.6,3.6,1.9l1.3-6.2h3.2L135.5,104.6z M128.1,99.7c0,0.9,0.2,1.5,0.6,2
			c0.4,0.5,1,0.7,1.6,0.7c0.6,0,1.1-0.2,1.6-0.6c0.5-0.4,0.9-1,1.2-1.8c0.3-0.8,0.5-1.6,0.5-2.4c0-0.9-0.2-1.6-0.7-2.1
			c-0.5-0.5-1-0.8-1.6-0.8c-0.9,0-1.7,0.5-2.3,1.6C128.4,97.4,128.1,98.5,128.1,99.7z"/>
		<path d="M139,99.6c0-2.2,0.6-4,1.9-5.3c1.2-1.3,2.9-2,4.9-2c1.8,0,3.1,0.5,4.1,1.5c1,1,1.5,2.3,1.5,3.9c0,1.9-0.6,3.6-1.9,5
			c-1.2,1.4-2.9,2.1-5,2.1c-1.1,0-2.1-0.2-3-0.7c-0.9-0.4-1.5-1.1-1.9-1.9C139.2,101.4,139,100.6,139,99.6z M148.2,97.3
			c0-0.8-0.2-1.4-0.7-1.8c-0.4-0.5-1-0.7-1.7-0.7c-0.7,0-1.3,0.2-1.9,0.6c-0.5,0.4-1,1.1-1.3,1.9c-0.3,0.8-0.4,1.6-0.4,2.3
			c0,0.9,0.2,1.5,0.7,2c0.5,0.5,1,0.8,1.8,0.8c0.9,0,1.6-0.4,2.2-1.1C147.7,100.2,148.2,98.9,148.2,97.3z"/>
		<path d="M158.9,104.6l3.4-16.4h12.2l-0.6,2.7h-8.8l-0.8,3.7h8.5l-0.6,2.7h-8.5l-1,4.5h9.6l-0.6,2.7H158.9z"/>
		<path d="M176.8,92.7h3l-0.3,1.5c0.8-0.7,1.5-1.1,2.1-1.4c0.7-0.3,1.4-0.4,2.1-0.4c1,0,1.8,0.3,2.3,0.8c0.6,0.6,0.8,1.3,0.8,2.2
			c0,0.4-0.1,1.2-0.4,2.4l-1.4,6.7h-3.2l1.4-6.8c0.2-1,0.3-1.6,0.3-1.8c0-0.4-0.1-0.7-0.4-1s-0.6-0.4-1-0.4c-0.5,0-1,0.2-1.6,0.6
			c-0.6,0.4-1,0.9-1.4,1.6c-0.2,0.5-0.5,1.4-0.8,2.8l-1,4.9h-3.2L176.8,92.7z"/>
		<path d="M201.8,104.6h-3.4l2.9-13.7h-4.8l0.6-2.7h13l-0.6,2.7h-4.8L201.8,104.6z"/>
		<path d="M210.7,92.7h3.2l-1.5,7.1c-0.2,0.8-0.3,1.4-0.3,1.6c0,0.3,0.1,0.6,0.4,0.9c0.3,0.2,0.6,0.4,1,0.4c0.3,0,0.6-0.1,0.8-0.2
			c0.3-0.1,0.6-0.3,0.9-0.5c0.3-0.2,0.6-0.5,0.8-0.8c0.2-0.3,0.4-0.7,0.6-1.1c0.1-0.3,0.3-0.9,0.5-1.7l1.2-5.7h3.2l-2.5,11.9h-3
			l0.3-1.6c-1.3,1.3-2.7,1.9-4.3,1.9c-1,0-1.7-0.3-2.3-0.8c-0.6-0.6-0.8-1.3-0.8-2.3c0-0.4,0.1-1.2,0.4-2.5L210.7,92.7z"/>
		<path d="M221.9,101.2l3.1-0.5c0.3,0.7,0.6,1.1,1,1.4c0.4,0.3,1,0.4,1.7,0.4c0.7,0,1.3-0.2,1.8-0.5c0.3-0.2,0.5-0.5,0.5-0.8
			c0-0.2-0.1-0.4-0.2-0.6c-0.2-0.2-0.6-0.4-1.3-0.6c-1.9-0.6-3.1-1.2-3.6-1.5c-0.7-0.6-1.1-1.3-1.1-2.3c0-0.9,0.4-1.8,1.1-2.4
			c1-0.9,2.4-1.4,4.4-1.4c1.5,0,2.7,0.3,3.5,0.8c0.8,0.6,1.3,1.3,1.5,2.3l-3,0.5c-0.2-0.4-0.4-0.8-0.8-1c-0.5-0.3-1.1-0.4-1.7-0.4
			s-1.2,0.1-1.5,0.3c-0.3,0.2-0.4,0.5-0.4,0.8c0,0.3,0.1,0.5,0.4,0.7c0.2,0.1,0.8,0.3,1.8,0.6c1.6,0.5,2.6,0.9,3.2,1.3
			c0.7,0.6,1.1,1.4,1.1,2.2c0,1.1-0.5,2.1-1.4,2.9c-0.9,0.8-2.3,1.2-4,1.2c-1.7,0-3-0.3-4-0.9C222.9,103.3,222.2,102.4,221.9,101.2z
			"/>
		<path d="M250.9,104.6h-3.2l-0.6-13.7l-2.6,13.7h-3.1l3.4-16.4h4.8l0.5,11.5l5.6-11.5h4.9l-3.4,16.4h-3.1l3.2-13.6L250.9,104.6z"/>
		<path d="M265.1,96l-3.1-0.3c0.4-1.1,1-1.9,1.9-2.5c0.9-0.6,2.1-0.9,3.6-0.9c1.5,0,2.7,0.3,3.4,0.9c0.7,0.6,1.1,1.4,1.1,2.3
			c0,0.4,0,0.7-0.1,1.1c-0.1,0.4-0.3,1.5-0.7,3.2c-0.3,1.4-0.5,2.4-0.5,3c0,0.5,0.1,1.1,0.3,1.7h-3.1c-0.1-0.4-0.2-0.9-0.2-1.3
			c-0.5,0.5-1,0.9-1.6,1.2c-0.6,0.3-1.2,0.4-1.9,0.4c-1,0-1.8-0.3-2.4-1c-0.6-0.6-1-1.5-1-2.5c0-1.1,0.4-2,1.1-2.7
			c0.7-0.7,2-1.1,3.8-1.2c1.5-0.1,2.6-0.3,3.1-0.5c0.1-0.5,0.2-0.8,0.2-1.1c0-0.3-0.1-0.6-0.4-0.9c-0.3-0.2-0.7-0.3-1.2-0.3
			c-0.6,0-1,0.1-1.4,0.4S265.2,95.6,265.1,96z M268.2,99c-0.2,0.1-0.5,0.1-0.8,0.1c-1.6,0.2-2.7,0.5-3.2,0.9
			c-0.4,0.3-0.5,0.6-0.5,1.1c0,0.4,0.1,0.7,0.4,0.9c0.3,0.3,0.6,0.4,1.1,0.4c0.5,0,0.9-0.1,1.4-0.4c0.4-0.2,0.8-0.5,1-0.9
			c0.2-0.4,0.4-0.9,0.6-1.7L268.2,99z"/>
		<path d="M275.9,92.7h3l-0.3,1.5c0.8-0.7,1.5-1.1,2.1-1.4c0.7-0.3,1.4-0.4,2.1-0.4c1,0,1.8,0.3,2.3,0.8c0.6,0.6,0.8,1.3,0.8,2.2
			c0,0.4-0.1,1.2-0.4,2.4l-1.4,6.7H281l1.4-6.8c0.2-1,0.3-1.6,0.3-1.8c0-0.4-0.1-0.7-0.4-1s-0.6-0.4-1-0.4c-0.5,0-1,0.2-1.6,0.6
			c-0.6,0.4-1,0.9-1.4,1.6c-0.2,0.5-0.5,1.4-0.8,2.8l-1,4.9h-3.2L275.9,92.7z"/>
		<path d="M287.8,99.6c0-2.2,0.6-4,1.9-5.3c1.2-1.3,2.9-2,4.9-2c1.8,0,3.1,0.5,4.1,1.5c1,1,1.5,2.3,1.5,3.9c0,1.9-0.6,3.6-1.8,5
			c-1.2,1.4-2.9,2.1-5,2.1c-1.1,0-2.1-0.2-3-0.7c-0.9-0.4-1.5-1.1-1.9-1.9C288.1,101.4,287.8,100.6,287.8,99.6z M297,97.3
			c0-0.8-0.2-1.4-0.7-1.8c-0.4-0.5-1-0.7-1.7-0.7c-0.7,0-1.3,0.2-1.9,0.6c-0.5,0.4-1,1.1-1.3,1.9c-0.3,0.8-0.4,1.6-0.4,2.3
			c0,0.9,0.2,1.5,0.7,2c0.5,0.5,1,0.8,1.8,0.8c0.9,0,1.6-0.4,2.2-1.1C296.6,100.2,297,98.9,297,97.3z"/>
		<path d="M301,101.2l3.1-0.5c0.3,0.7,0.6,1.1,1,1.4c0.4,0.3,1,0.4,1.7,0.4c0.7,0,1.3-0.2,1.8-0.5c0.3-0.2,0.5-0.5,0.5-0.8
			c0-0.2-0.1-0.4-0.2-0.6c-0.2-0.2-0.6-0.4-1.3-0.6c-1.9-0.6-3.1-1.2-3.6-1.5c-0.7-0.6-1.1-1.3-1.1-2.3c0-0.9,0.4-1.8,1.1-2.4
			c1-0.9,2.4-1.4,4.4-1.4c1.5,0,2.7,0.3,3.5,0.8c0.8,0.6,1.3,1.3,1.5,2.3l-3,0.5c-0.2-0.4-0.4-0.8-0.8-1c-0.5-0.3-1.1-0.4-1.7-0.4
			c-0.7,0-1.2,0.1-1.5,0.3c-0.3,0.2-0.4,0.5-0.4,0.8c0,0.3,0.1,0.5,0.4,0.7c0.2,0.1,0.8,0.3,1.8,0.6c1.6,0.5,2.6,0.9,3.1,1.3
			c0.8,0.6,1.1,1.4,1.1,2.2c0,1.1-0.5,2.1-1.4,2.9c-0.9,0.8-2.3,1.2-4,1.2c-1.7,0-3-0.3-4-0.9C302,103.3,301.3,102.4,301,101.2z"/>
	</g>
</g>
</svg>
