<?xml version="1.0" encoding="utf-8"?>
<!-- Generator: Adobe Illustrator 22.0.1, SVG Export Plug-In . SVG Version: 6.00 Build 0)  -->
<svg version="1.1" id="Capa_1" xmlns="http://www.w3.org/2000/svg" xmlns:xlink="http://www.w3.org/1999/xlink" x="0px" y="0px"
	 viewBox="0 0 30 30" style="enable-background:new 0 0 30 30;" xml:space="preserve">
<style type="text/css">
	.st0{filter:url(#Adobe_OpacityMaskFilter);}
	.st1{fill:#FFFFFF;}
	.st2{mask:url(#mask-2_1_);fill:#FFFFFF;}
</style>
<title>icono-instagram-color</title>
<desc>Created with Sketch.</desc>
<g id="Page-1">
	<g id="icono-instagram-color">
		<g id="Group-8" transform="translate(3.000000, 3.000000)">
			<g id="Group-3" transform="translate(0.000000, 0.039889)">
				<g id="Clip-2">
				</g>
				<defs>
					<filter id="Adobe_OpacityMaskFilter" filterUnits="userSpaceOnUse" x="0" y="0" width="23.9" height="23.9">
						<feColorMatrix  type="matrix" values="1 0 0 0 0  0 1 0 0 0  0 0 1 0 0  0 0 0 1 0"/>
					</filter>
				</defs>
				<mask maskUnits="userSpaceOnUse" x="0" y="0" width="23.9" height="23.9" id="mask-2_1_">
					<g class="st0">
						<polygon id="path-1_1_" class="st1" points="0,0 23.9,0 23.9,23.9 0,23.9 						"/>
					</g>
				</mask>
				<path id="Fill-1" class="st2" d="M11.9,0C8.7,0,8.3,0,7,0.1C5.8,0.1,4.9,0.3,4.1,0.6C3.3,0.9,2.7,1.3,2,2
					C1.3,2.7,0.9,3.3,0.6,4.1C0.3,4.9,0.1,5.8,0.1,7C0,8.3,0,8.7,0,12s0,3.7,0.1,4.9c0.1,1.3,0.3,2.1,0.6,2.9
					c0.3,0.8,0.7,1.5,1.4,2.1c0.7,0.7,1.3,1.1,2.1,1.4c0.8,0.3,1.6,0.5,2.9,0.6c1.3,0.1,1.7,0.1,4.9,0.1c3.2,0,3.7,0,4.9-0.1
					c1.3-0.1,2.1-0.3,2.9-0.6c0.8-0.3,1.5-0.7,2.1-1.4c0.7-0.7,1.1-1.3,1.4-2.1c0.3-0.8,0.5-1.6,0.6-2.9c0.1-1.3,0.1-1.7,0.1-4.9
					c0-3.2,0-3.7-0.1-4.9c-0.1-1.3-0.3-2.1-0.6-2.9C23,3.3,22.6,2.7,21.9,2c-0.7-0.7-1.3-1.1-2.1-1.4c-0.8-0.3-1.6-0.5-2.9-0.6
					C15.6,0,15.2,0,11.9,0 M11.9,2.2c3.2,0,3.6,0,4.8,0.1c1.2,0.1,1.8,0.2,2.2,0.4c0.6,0.2,1,0.5,1.4,0.9C20.8,4,21,4.4,21.3,4.9
					c0.2,0.4,0.4,1.1,0.4,2.2c0.1,1.3,0.1,1.6,0.1,4.8c0,3.2,0,3.6-0.1,4.8c-0.1,1.2-0.2,1.8-0.4,2.2c-0.2,0.6-0.5,1-0.9,1.4
					c-0.4,0.4-0.8,0.7-1.4,0.9c-0.4,0.2-1.1,0.4-2.2,0.4c-1.3,0.1-1.6,0.1-4.8,0.1s-3.6,0-4.8-0.1c-1.2-0.1-1.8-0.2-2.2-0.4
					c-0.6-0.2-1-0.5-1.4-0.9C3.1,20,2.9,19.6,2.6,19c-0.2-0.4-0.4-1.1-0.4-2.2c-0.1-1.3-0.1-1.6-0.1-4.8c0-3.2,0-3.6,0.1-4.8
					C2.3,6,2.5,5.3,2.6,4.9c0.2-0.6,0.5-1,0.9-1.4c0.4-0.4,0.8-0.7,1.4-0.9C5.3,2.5,6,2.3,7.1,2.2C8.4,2.2,8.8,2.2,11.9,2.2"/>
			</g>
			<path id="Fill-4" class="st1" d="M11.9,16c-2.2,0-4-1.8-4-4s1.8-4,4-4s4,1.8,4,4S14.1,16,11.9,16 M11.9,5.9
				c-3.4,0-6.1,2.7-6.1,6.1c0,3.4,2.7,6.1,6.1,6.1s6.1-2.7,6.1-6.1C18.1,8.6,15.3,5.9,11.9,5.9"/>
			<path id="Fill-6" class="st1" d="M19.8,5.6c0,0.8-0.6,1.4-1.4,1.4c-0.8,0-1.4-0.6-1.4-1.4s0.6-1.4,1.4-1.4
				C19.1,4.2,19.8,4.8,19.8,5.6"/>
		</g>
	</g>
</g>
</svg>
