<?xml version="1.0" encoding="utf-8"?>
<!-- Generator: Adobe Illustrator 27.1.1, SVG Export Plug-In . SVG Version: 6.00 Build 0)  -->
<svg version="1.1" id="Capa_1" xmlns="http://www.w3.org/2000/svg" xmlns:xlink="http://www.w3.org/1999/xlink" x="0px" y="0px"
	 viewBox="0 0 24 24" style="enable-background:new 0 0 24 24;" xml:space="preserve">
<style type="text/css">
	.st0{fill:#FFA400;}
</style>
<path class="st0" d="M21.7,15.6l-4.5-4.5c0.1-0.5,0.1-0.9,0.1-1.4c0-1.3-0.3-2.6-0.9-3.7c-0.6-1.1-1.5-2.1-2.6-2.8
	c-1.1-0.7-2.3-1.1-3.6-1.2C8.9,1.9,7.6,2.2,6.4,2.7C6.3,2.8,6.1,2.9,6,3C5.9,3.1,5.9,3.3,5.8,3.5c0,0.2,0,0.3,0,0.5S6,4.2,6.1,4.3
	l4.4,4.3l-1.8,1.8L4.3,6.1C4.2,6,4.1,5.9,3.9,5.9c-0.2,0-0.3-0.1-0.5,0C3.3,5.9,3.1,6,3,6S2.8,6.3,2.7,6.4C2.2,7.6,1.9,8.9,2,10.2
	c0.1,1.3,0.5,2.5,1.2,3.6c0.7,1.1,1.7,2,2.8,2.6c1.1,0.6,2.4,0.9,3.7,0.9c0.5,0,0.9,0,1.4-0.1l4.5,4.5c0.1,0.1,0.2,0.2,0.3,0.2
	c0.1,0.1,0.3,0.1,0.4,0.1c0.1,0,0.3,0,0.4-0.1c0.1-0.1,0.2-0.1,0.3-0.2c0.1-0.1,0.2-0.2,0.2-0.3c0.1-0.1,0.1-0.3,0.1-0.4
	s0-0.3-0.1-0.4c-0.1-0.1-0.1-0.2-0.2-0.3l-4.9-4.9c-0.1-0.1-0.3-0.2-0.4-0.3c-0.2,0-0.3,0-0.5,0c-0.5,0.1-1,0.2-1.5,0.2
	c-0.7,0-1.5-0.1-2.2-0.4c-0.7-0.3-1.3-0.7-1.9-1.2c-0.5-0.5-1-1.2-1.2-1.8C4.2,11.2,4,10.4,4,9.7c0-0.3,0-0.7,0.1-1L8,12.6
	c0.1,0.1,0.2,0.2,0.3,0.2c0.1,0.1,0.3,0.1,0.4,0.1c0.1,0,0.3,0,0.4-0.1c0.1-0.1,0.2-0.1,0.3-0.2l3.2-3.2c0.2-0.2,0.3-0.4,0.3-0.7
	c0-0.3-0.1-0.5-0.3-0.7L8.7,4.1C9,4,9.4,4,9.7,4c1.5,0,2.9,0.6,4,1.7s1.7,2.5,1.7,4c0,0.5-0.1,1-0.2,1.5c0,0.2,0,0.3,0,0.5
	c0,0.2,0.1,0.3,0.3,0.4l4.9,4.9c0.2,0.2,0.4,0.3,0.7,0.3c0.3,0,0.5-0.1,0.7-0.3c0.2-0.2,0.3-0.4,0.3-0.7S21.9,15.8,21.7,15.6
	L21.7,15.6z"/>
</svg>
