<?xml version="1.0" encoding="utf-8"?>
<!-- Generator: Adobe Illustrator 27.1.1, SVG Export Plug-In . SVG Version: 6.00 Build 0)  -->
<svg version="1.1" id="Capa_1" xmlns="http://www.w3.org/2000/svg" xmlns:xlink="http://www.w3.org/1999/xlink" x="0px" y="0px"
	 viewBox="0 0 419.5 107.6" style="enable-background:new 0 0 419.5 107.6;" xml:space="preserve">
<style type="text/css">
	.st0{fill-rule:evenodd;clip-rule:evenodd;fill:#FFA400;}
</style>
<g>
	<path class="st0" d="M351.1,5.3h9v12.9h-3.4c-2.9,0-5.5,0.4-8.1,1.1c-2.5,0.8-4.6,2.1-6.2,3.9c-1.7,1.8-2.4,4.1-2.4,6.9
		c0,3.4,0.7,6.1,2.1,8c1.5,1.9,3.4,3.2,5.8,4c2.5,0.7,5.3,1.1,8.6,1.1h3.6v12.7h-12.9c-4.2,0-7.8-0.8-10.9-2.5
		c-3-1.7-5.4-3.8-7.3-6.4c-1.8-2.6-3.2-5.3-4.1-8.3c-0.8-2.9-1.3-5.6-1.4-8.2c0-4.7,1.2-9,3.4-12.9c2.2-3.9,5.3-6.8,9.6-8.9
		C340.8,6.5,345.6,5.3,351.1,5.3"/>
	<path class="st0" d="M318,18h-13.6c-4.1,0-7.1,1.3-9.3,3.9c-2.1,2.7-3.2,5.7-3.2,9.4c0.1,2.3,0.6,4.4,1.7,6.5
		c0.9,2,2.4,3.7,4.2,4.9c1.8,1.2,4.1,1.8,6.6,1.8c2.9,0,5.4-0.5,7.9-1.7s4.4-2.9,5.7-5.1v14c-2.9,3.3-7.5,5-13.8,5
		c-4.3,0-8.3-0.6-11.7-1.9c-3.4-1.4-6.3-3.2-8.6-5.6c-2.3-2.4-4.1-5.3-5.2-8.7c-1.2-3.3-1.7-7-1.7-11c0-3.1,0.5-6.1,1.5-8.9
		c1.1-2.9,2.7-5.4,4.8-7.7c2.2-2.3,4.9-4.1,8.2-5.3c3.2-1.4,7.1-2,11.4-2h15.3V18H318z"/>
	<path class="st0" d="M257.9,5.3c5.2,0,8.7,1,11,3c2.1,1.9,3.2,5.2,3.2,9.7v37.9h-16.3V23.4c0-1.9-0.1-3.3-0.3-4
		c-0.2-0.6-0.5-1.1-1.1-1.3c-0.6-0.1-1.8-0.2-3.7-0.2H243v38h-15V5.4h29.9V5.3z"/>
	<rect x="205.8" y="5.3" class="st0" width="14.8" height="14.8"/>
	<rect x="205.8" y="26" class="st0" width="14.8" height="29.9"/>
	<rect x="309" y="23.9" class="st0" width="13.4" height="13.4"/>
	<path class="st0" d="M390.8,4c4.6,0,8.9,1.2,12.9,3.6c4.1,2.4,7.2,5.6,9.5,9.8c2,3.4,3.1,7.1,3.5,10.9h-15.3
		c-0.3-1.2-0.6-2.2-1.3-3.3c-0.9-1.6-2.3-3-4-4.1c-1.7-1-3.4-1.6-5.3-1.6c-3,0-5.6,1.1-7.7,3.3c-1.7,1.7-2.7,3.5-3.1,5.6h-15.2
		c0.3-3.8,1.4-7.5,3.4-10.9c2.3-4.1,5.5-7.4,9.5-9.8C381.8,5.2,386.1,4,390.8,4 M416.6,32.9c-0.4,3.9-1.5,7.5-3.5,10.9
		c-2.3,4.1-5.4,7.4-9.5,9.8c-4,2.4-8.3,3.6-12.9,3.6c-4.7,0-9-1.2-13.1-3.6c-4-2.4-7.2-5.6-9.5-9.8c-1.9-3.4-3.1-7-3.4-10.9h15.2
		c0.3,1.1,0.7,2.3,1.2,3.3c1,1.7,2.4,3.1,4,4.1c1.7,1,3.6,1.5,5.5,1.5c2.9,0,5.4-1.1,7.5-3.3c1.6-1.6,2.6-3.5,2.9-5.6H416.6z"/>
	<path d="M46.5,48.9c-1,1.1-2.2,2.2-3.5,3.2s-2.8,1.9-4.5,2.7c-1.7,0.8-3.6,1.4-5.6,1.9s-4.3,0.7-6.7,0.7c-3.6,0-6.8-0.5-9.7-1.6
		c-2.9-1.1-5.3-2.5-7.3-4.5c-2-1.9-3.6-4.3-4.7-7s-1.6-5.8-1.6-9.1c0-4.4,0.8-8.5,2.3-12.3s3.7-7.2,6.4-10c2.7-2.9,5.9-5.1,9.6-6.7
		s7.7-2.4,12-2.4c4,0,7.6,0.7,10.9,2.1c3.2,1.4,5.6,3.2,7.3,5.4l-8.8,7.9C41.8,18,40.6,17,39,16s-3.6-1.4-6-1.4
		c-2.5,0-4.9,0.5-6.9,1.6c-2.1,1.1-3.9,2.5-5.4,4.3s-2.7,3.9-3.5,6.2c-0.8,2.3-1.3,4.7-1.3,7.2c0,1.7,0.3,3.4,0.8,4.9
		c0.5,1.6,1.4,2.9,2.4,4.1c1.1,1.1,2.4,2.1,3.9,2.7c1.6,0.7,3.3,1,5.4,1c2.3,0,4.4-0.5,6.4-1.4c2-1,3.8-2.3,5.3-4.1L46.5,48.9z"/>
	<path d="M83.2,56l-1.7-10.1H61.9L55.8,56H42.1L74.5,5.2h11.6L95.7,56H83.2z M77.7,18.2L67,36.2h13.3L77.7,18.2z"/>
	<path d="M133,17.5c-1-1.3-2.2-2.3-3.6-2.9c-1.4-0.7-3-1-4.8-1c-0.8,0-1.7,0.1-2.6,0.3c-0.9,0.2-1.7,0.6-2.5,1.1
		c-0.7,0.5-1.4,1.1-1.9,1.9s-0.8,1.7-0.8,2.8c0,1.4,0.6,2.6,1.7,3.4c1.1,0.8,2.7,1.6,4.7,2.3c2.2,0.8,4.2,1.6,5.9,2.5
		c1.7,0.9,3.2,2,4.4,3.2c1.2,1.2,2.1,2.6,2.7,4.1s0.9,3.2,0.9,5.1c0,3.1-0.6,5.7-1.9,7.8c-1.3,2.2-2.9,3.9-4.9,5.3s-4.3,2.4-6.8,3
		s-5,0.9-7.4,0.9c-1.8,0-3.6-0.2-5.5-0.5c-1.8-0.3-3.6-0.8-5.2-1.5c-1.7-0.6-3.2-1.5-4.7-2.5c-1.4-1-2.7-2.2-3.7-3.4l8.8-7.2
		c1,1.5,2.5,2.8,4.5,3.7c2,1,4,1.4,6,1.4c1.1,0,2.1-0.1,3.1-0.3c1-0.2,1.9-0.6,2.6-1.1c0.8-0.5,1.4-1.2,1.8-1.9
		c0.5-0.8,0.7-1.7,0.7-2.8c0-1.8-0.7-3.2-2.2-4.2c-1.4-1-3.4-2-5.8-2.8c-1.7-0.6-3.2-1.2-4.7-1.9c-1.5-0.7-2.7-1.6-3.8-2.7
		s-1.9-2.3-2.6-3.8c-0.6-1.5-1-3.2-1-5.3c0-2.6,0.5-4.9,1.6-7s2.6-3.9,4.4-5.3c1.9-1.5,4-2.6,6.5-3.4s5.1-1.2,8-1.2
		c1.5,0,3,0.1,4.5,0.4c1.5,0.3,3,0.7,4.4,1.3c1.4,0.5,2.7,1.2,3.9,2c1.2,0.8,2.2,1.7,3,2.8L133,17.5z"/>
	<path d="M176.2,56l-1.7-10.1h-19.6L148.8,56h-13.7l32.4-50.9h11.6l9.6,50.9H176.2z M170.6,18.2l-10.6,18h13.3L170.6,18.2z"/>
	<g>
		<path d="M94.2,98.7c0.9,1.1,2.1,2.1,3.6,3.1l-1.5,2.1c-1.6-1-3-2.3-4.3-3.8c-1.8,0.8-3.5,1.3-5.1,1.3c-1.3,0-2.7-0.2-4.3-0.7
			c-1.5-0.5-2.8-1.2-3.9-2.2c-1-1-1.9-2.3-2.5-3.8c-0.6-1.6-0.9-3.3-0.9-5.2c0-2.3,0.4-4.5,1.3-6.6c0.7-1.7,1.7-3.2,2.9-4.5
			s2.5-2.2,3.8-2.9c1.8-0.9,3.8-1.4,6-1.4c3.3,0,6,1.1,8,3.2c2.1,2.1,3.1,5,3.1,8.6c0,2.7-0.6,5.1-1.7,7.3S96.2,97.3,94.2,98.7z
			 M92.2,96.6c1.5-1.1,2.6-2.7,3.5-4.7s1.4-4,1.4-6.2c0-2.7-0.7-4.8-2.2-6.4s-3.3-2.4-5.4-2.4c-1.8,0-3.5,0.5-5.1,1.6
			c-1.6,1-3,2.6-3.9,4.6c-1,2-1.5,4.2-1.5,6.6c0,3,0.9,5.3,2.8,6.9c1.4,1.3,3,1.9,4.6,1.9c1.3,0,2.5-0.2,3.5-0.6
			c-1.1-1-2.2-1.8-3.4-2.4l1.3-2.2c0.8,0.3,1.5,0.7,2.1,1.2C90.5,94.8,91.2,95.6,92.2,96.6z"/>
		<path d="M115,97.4c-2.3,2.6-4.6,3.9-7,3.9c-1.5,0-2.7-0.4-3.6-1.3s-1.4-1.9-1.4-3.1c0-0.8,0.2-2.2,0.6-4.1l2.3-11h3.3l-2.6,12.2
			c-0.2,1-0.3,1.8-0.3,2.4c0,0.7,0.2,1.3,0.7,1.7c0.4,0.4,1.1,0.6,1.9,0.6c0.9,0,1.8-0.2,2.7-0.7c0.9-0.4,1.6-1,2.3-1.8
			c0.6-0.8,1.1-1.7,1.5-2.7c0.3-0.7,0.6-1.8,0.9-3.5l1.7-8.3h3.3l-4,19.1h-3L115,97.4z"/>
		<path d="M122.2,100.9l4-19.1h3.3l-4,19.1H122.2z M127,78.2l0.8-3.7h3.2l-0.8,3.7H127z"/>
		<path d="M138.2,98.2l-0.5,2.7c-0.8,0.2-1.5,0.3-2.3,0.3c-1.3,0-2.3-0.3-3.1-1c-0.6-0.5-0.9-1.1-0.9-2c0-0.4,0.2-1.4,0.5-2.9
			l2.3-11.1h-2.6l0.5-2.5h2.6l1-4.7l3.7-2.3l-1.5,7h3.2l-0.5,2.5h-3.2l-2.2,10.6c-0.3,1.3-0.4,2.2-0.4,2.4c0,0.4,0.1,0.7,0.3,0.9
			c0.2,0.2,0.6,0.3,1.1,0.3C137,98.4,137.6,98.4,138.2,98.2z"/>
		<path d="M141.5,93.7c0-3.7,1.1-6.8,3.3-9.3c1.8-2,4.2-3,7.1-3c2.3,0,4.2,0.7,5.6,2.2c1.4,1.4,2.1,3.4,2.1,5.8
			c0,2.2-0.4,4.2-1.3,6.1s-2.2,3.3-3.8,4.4s-3.4,1.5-5.2,1.5c-1.5,0-2.8-0.3-4.1-1c-1.2-0.6-2.2-1.5-2.8-2.7
			C141.8,96.6,141.5,95.2,141.5,93.7z M144.8,93.3c0,1.8,0.4,3.2,1.3,4.1s2,1.4,3.3,1.4c0.7,0,1.4-0.1,2.1-0.4s1.3-0.7,1.9-1.3
			c0.6-0.6,1.1-1.2,1.5-2c0.4-0.7,0.7-1.5,1-2.4c0.4-1.2,0.6-2.3,0.6-3.4c0-1.7-0.4-3.1-1.3-4c-0.9-1-2-1.4-3.3-1.4
			c-1,0-2,0.2-2.8,0.7c-0.8,0.5-1.6,1.2-2.3,2.1c-0.7,0.9-1.2,2-1.5,3.3C144.9,91.4,144.8,92.3,144.8,93.3z"/>
		<path d="M172.1,92.9l0.7-3.3h9.9l-0.7,3.3H172.1z"/>
		<path d="M194.5,100.9l5.5-26.4h3.5l-4.9,23.4h13.8l-0.6,3H194.5z"/>
		<path d="M214.5,100.9l5.5-26.4h3.3l-5.5,26.4H214.5z"/>
		<path d="M235.9,98.6c-1.1,1-2.2,1.7-3.3,2.1s-2.2,0.7-3.4,0.7c-1.8,0-3.2-0.5-4.3-1.6s-1.6-2.4-1.6-4c0-1.1,0.2-2,0.7-2.8
			s1.1-1.5,1.9-2s1.8-0.9,3-1.1c0.7-0.1,2.1-0.3,4.2-0.3c2-0.1,3.5-0.3,4.4-0.6c0.3-0.9,0.4-1.6,0.4-2.2c0-0.8-0.3-1.4-0.8-1.8
			c-0.8-0.6-1.9-0.9-3.3-0.9s-2.5,0.3-3.4,0.9s-1.5,1.5-1.9,2.6l-3.3-0.3c0.7-1.9,1.7-3.4,3.2-4.4s3.3-1.5,5.5-1.5
			c2.4,0,4.2,0.6,5.6,1.7c1.1,0.8,1.6,1.9,1.6,3.3c0,1-0.2,2.2-0.5,3.5l-1.1,4.8c-0.3,1.5-0.5,2.7-0.5,3.7c0,0.6,0.1,1.5,0.4,2.6
			h-3.3C236.1,100.2,235.9,99.4,235.9,98.6z M237.1,91.2c-0.5,0.2-0.9,0.3-1.5,0.4c-0.5,0.1-1.4,0.2-2.6,0.3c-1.9,0.2-3.2,0.4-4,0.6
			c-0.8,0.3-1.4,0.7-1.8,1.2c-0.4,0.6-0.6,1.2-0.6,1.9c0,0.9,0.3,1.7,0.9,2.3c0.6,0.6,1.5,0.9,2.7,0.9c1.1,0,2.1-0.3,3.1-0.9
			s1.8-1.4,2.4-2.4C236.2,94.6,236.6,93.2,237.1,91.2z"/>
		<path d="M243.5,100.9l4-19.1h3l-0.7,3.3c1.3-1.3,2.5-2.3,3.6-2.9s2.3-0.9,3.4-0.9c1.5,0,2.8,0.4,3.6,1.3c0.9,0.8,1.3,2,1.3,3.4
			c0,0.7-0.2,1.8-0.5,3.4l-2.4,11.6h-3.3l2.5-12.1c0.3-1.2,0.4-2,0.4-2.6s-0.2-1.2-0.7-1.5s-1.1-0.6-1.9-0.6c-1.7,0-3.2,0.6-4.5,1.8
			c-1.3,1.2-2.3,3.3-2.9,6.2l-1.9,8.9h-3V100.9z"/>
		<path d="M264.6,93.7c0-3.7,1.1-6.8,3.3-9.3c1.8-2,4.2-3,7.1-3c2.3,0,4.2,0.7,5.6,2.2c1.4,1.4,2.1,3.4,2.1,5.8
			c0,2.2-0.4,4.2-1.3,6.1s-2.2,3.3-3.8,4.4s-3.4,1.5-5.2,1.5c-1.5,0-2.8-0.3-4.1-1c-1.2-0.6-2.2-1.5-2.8-2.7
			C264.9,96.6,264.6,95.2,264.6,93.7z M267.8,93.3c0,1.8,0.4,3.2,1.3,4.1s2,1.4,3.3,1.4c0.7,0,1.4-0.1,2.1-0.4s1.3-0.7,1.9-1.3
			c0.6-0.6,1.1-1.2,1.5-2c0.4-0.7,0.7-1.5,1-2.4c0.4-1.2,0.6-2.3,0.6-3.4c0-1.7-0.4-3.1-1.3-4c-0.9-1-2-1.4-3.3-1.4
			c-1,0-2,0.2-2.8,0.7s-1.6,1.2-2.3,2.1c-0.7,0.9-1.2,2-1.5,3.3S267.8,92.3,267.8,93.3z"/>
		<path d="M308.6,90.4l0.6-3h11.6l-2.3,10.8c-1.5,0.9-3.1,1.7-5,2.2c-1.9,0.6-3.7,0.9-5.5,0.9c-3.8,0-6.7-1.2-8.6-3.5
			c-1.6-2-2.4-4.5-2.4-7.5c0-3.2,0.7-6.1,2.1-8.7s3.2-4.5,5.3-5.8c2.1-1.2,4.5-1.9,7.1-1.9c1.9,0,3.6,0.3,5,1s2.6,1.6,3.4,2.7
			s1.4,2.6,1.7,4.4l-3.5,0.4c-0.4-1.8-1.1-3.2-2.3-4.2c-1.2-1-2.7-1.5-4.5-1.5c-1.9,0-3.7,0.5-5.4,1.6c-1.7,1-3,2.6-4,4.7
			s-1.5,4.5-1.5,7.1c0,2.7,0.7,4.7,2,6c1.3,1.4,3.1,2,5.4,2s4.8-0.8,7.4-2.3l1.2-5.7h-7.8V90.4z"/>
		<path d="M323.5,100.9l4-19.1h2.9l-0.8,3.9c1-1.5,1.9-2.6,2.9-3.3s1.9-1.1,2.9-1.1c0.6,0,1.4,0.2,2.4,0.7l-1.3,3
			c-0.6-0.4-1.2-0.6-1.9-0.6c-1.1,0-2.3,0.6-3.5,1.9s-2.1,3.6-2.8,6.9l-1.6,7.7H323.5z"/>
		<path d="M348.6,98.6c-1.1,1-2.2,1.7-3.3,2.1s-2.2,0.7-3.4,0.7c-1.8,0-3.2-0.5-4.3-1.6s-1.6-2.4-1.6-4c0-1.1,0.2-2,0.7-2.8
			s1.1-1.5,1.9-2s1.8-0.9,3-1.1c0.7-0.1,2.1-0.3,4.2-0.3c2-0.1,3.5-0.3,4.4-0.6c0.3-0.9,0.4-1.6,0.4-2.2c0-0.8-0.3-1.4-0.8-1.8
			c-0.8-0.6-1.9-0.9-3.3-0.9s-2.5,0.3-3.4,0.9s-1.5,1.5-1.9,2.6l-3.3-0.3c0.7-1.9,1.7-3.4,3.2-4.4s3.3-1.5,5.5-1.5
			c2.4,0,4.2,0.6,5.6,1.7c1.1,0.8,1.6,1.9,1.6,3.3c0,1-0.2,2.2-0.5,3.5l-1.1,4.8c-0.3,1.5-0.5,2.7-0.5,3.7c0,0.6,0.1,1.5,0.4,2.6
			h-3.3C348.9,100.2,348.6,99.4,348.6,98.6z M349.9,91.2c-0.5,0.2-0.9,0.3-1.5,0.4c-0.5,0.1-1.4,0.2-2.6,0.3c-1.9,0.2-3.2,0.4-4,0.6
			c-0.8,0.3-1.4,0.7-1.8,1.2c-0.4,0.6-0.6,1.2-0.6,1.9c0,0.9,0.3,1.7,0.9,2.3c0.6,0.6,1.5,0.9,2.7,0.9c1.1,0,2.1-0.3,3.1-0.9
			s1.8-1.4,2.4-2.4C349.1,94.6,349.6,93.2,349.9,91.2z"/>
		<path d="M356.2,100.9l4-19.1h3l-0.7,3.3c1.3-1.3,2.5-2.3,3.6-2.9s2.3-0.9,3.4-0.9c1.5,0,2.8,0.4,3.6,1.3c0.9,0.8,1.3,2,1.3,3.4
			c0,0.7-0.2,1.8-0.5,3.4l-2.4,11.6h-3.2l2.5-12.1c0.3-1.2,0.4-2,0.4-2.6s-0.2-1.2-0.7-1.5s-1.1-0.6-1.9-0.6c-1.7,0-3.2,0.6-4.5,1.8
			c-1.3,1.2-2.3,3.3-2.9,6.2l-1.9,8.9h-3.1V100.9z"/>
		<path d="M389.6,98.2c-1.9,2.1-3.8,3.2-5.8,3.2c-1.8,0-3.3-0.7-4.5-2s-1.8-3.3-1.8-5.8c0-2.3,0.5-4.5,1.4-6.4
			c1-1.9,2.1-3.4,3.6-4.3s2.9-1.4,4.3-1.4c2.4,0,4.2,1.1,5.4,3.4l2.2-10.3h3.2l-5.5,26.4h-3L389.6,98.2z M380.8,92.8
			c0,1.3,0.1,2.4,0.4,3.2c0.3,0.8,0.7,1.4,1.4,1.9c0.6,0.5,1.4,0.8,2.3,0.8c1.5,0,2.8-0.8,4-2.3c1.6-2,2.4-4.6,2.4-7.6
			c0-1.5-0.4-2.7-1.2-3.5c-0.8-0.9-1.8-1.3-3-1.3c-0.8,0-1.5,0.2-2.1,0.5s-1.3,0.9-1.9,1.8s-1.2,1.9-1.6,3.2
			C381,90.7,380.8,91.9,380.8,92.8z"/>
		<path d="M411.4,94.4l3.2,0.3c-0.5,1.6-1.5,3.1-3.1,4.5s-3.6,2.1-5.9,2.1c-1.4,0-2.7-0.3-3.9-1c-1.2-0.7-2.1-1.6-2.7-2.9
			c-0.6-1.2-0.9-2.7-0.9-4.3c0-2.1,0.5-4.1,1.5-6.1s2.2-3.4,3.8-4.4c1.5-1,3.2-1.4,5-1.4c2.3,0,4.1,0.7,5.5,2.1s2,3.4,2,5.8
			c0,0.9-0.1,1.9-0.3,2.9h-14.2c0,0.4-0.1,0.7-0.1,1c0,1.8,0.4,3.2,1.2,4.1c0.8,0.9,1.8,1.4,3,1.4c1.1,0,2.2-0.4,3.3-1.1
			C410,96.8,410.8,95.7,411.4,94.4z M401.9,89.7h10.7c0-0.3,0-0.6,0-0.7c0-1.6-0.4-2.9-1.2-3.8c-0.8-0.9-1.9-1.3-3.2-1.3
			c-1.4,0-2.7,0.5-3.8,1.4C403.2,86.2,402.5,87.7,401.9,89.7z"/>
	</g>
</g>
</svg>
