<?xml version="1.0" encoding="utf-8"?>
<!-- Generator: Adobe Illustrator 27.1.1, SVG Export Plug-In . SVG Version: 6.00 Build 0)  -->
<svg version="1.1" id="Capa_1" xmlns="http://www.w3.org/2000/svg" xmlns:xlink="http://www.w3.org/1999/xlink" x="0px" y="0px"
	 viewBox="0 0 24 24" style="enable-background:new 0 0 24 24;" xml:space="preserve">
<style type="text/css">
	.st0{fill:#FFA400;}
</style>
<path class="st0" d="M19,4H9C8.7,4,8.5,4.1,8.3,4.3C8.1,4.5,8,4.7,8,5v2H3C2.7,7,2.5,7.1,2.3,7.3C2.1,7.5,2,7.7,2,8
	c0,0.3,0.1,0.5,0.3,0.7C2.5,8.9,2.7,9,3,9h5v4c0,0.3,0.1,0.5,0.3,0.7C8.5,13.9,8.7,14,9,14s0.5-0.1,0.7-0.3C9.9,13.5,10,13.3,10,13
	v-1h4v7c0,0.3,0.1,0.5,0.3,0.7S14.7,20,15,20h2c0.8,0,1.6-0.3,2.1-0.9c0.6-0.6,0.9-1.3,0.9-2.1v-5.2c0.6-0.2,1.1-0.6,1.4-1.1
	C21.8,10.2,22,9.6,22,9V7c0-0.8-0.3-1.6-0.9-2.1C20.6,4.3,19.8,4,19,4z M18,17c0,0.3-0.1,0.5-0.3,0.7S17.3,18,17,18h-1v-6h2V17z
	 M20,9c0,0.3-0.1,0.5-0.3,0.7C19.5,9.9,19.3,10,19,10h-9V6h6v1c0,0.3,0.1,0.5,0.3,0.7C16.5,7.9,16.7,8,17,8s0.5-0.1,0.7-0.3
	C17.9,7.5,18,7.3,18,7V6h1c0.3,0,0.5,0.1,0.7,0.3C19.9,6.5,20,6.7,20,7V9z"/>
</svg>
