<?xml version="1.0" encoding="utf-8"?>
<!-- Generator: Adobe Illustrator 27.1.1, SVG Export Plug-In . SVG Version: 6.00 Build 0)  -->
<svg version="1.1" id="Capa_1" xmlns="http://www.w3.org/2000/svg" xmlns:xlink="http://www.w3.org/1999/xlink" x="0px" y="0px"
	 viewBox="0 0 459.7 459.7" style="enable-background:new 0 0 459.7 459.7;" xml:space="preserve">
<style type="text/css">
	.st0{fill:#FFA400;}
</style>
<path class="st0" d="M207.6,227.6v113.3c0,5.9,2.3,11.5,6.5,15.7c4.2,4.2,9.8,6.5,15.7,6.5s11.5-2.3,15.7-6.5
	c4.2-4.2,6.5-9.8,6.5-15.7V227.6c27-5.5,51-20.8,67.3-43c16.3-22.2,23.8-49.6,21.1-77c-2.8-27.4-15.6-52.8-36-71.3
	c-20.4-18.5-47-28.7-74.5-28.7s-54.1,10.2-74.5,28.7c-20.4,18.5-33.3,43.9-36,71.3c-2.8,27.4,4.7,54.8,21.1,77
	C156.7,206.8,180.6,222.1,207.6,227.6z M229.8,52.1c13.2,0,26.1,3.9,37,11.2c11,7.3,19.5,17.7,24.6,29.9c5,12.2,6.4,25.6,3.8,38.5
	c-2.6,12.9-8.9,24.8-18.2,34.1c-9.3,9.3-21.2,15.7-34.1,18.2c-12.9,2.6-26.3,1.3-38.5-3.8c-12.2-5-22.6-13.6-29.9-24.6
	c-7.3-11-11.2-23.9-11.2-37c0-17.7,7-34.6,19.5-47.1C195.2,59.1,212.2,52.1,229.8,52.1z M323.4,283.6c-2.9-0.6-5.9-0.6-8.9-0.1
	c-2.9,0.6-5.7,1.7-8.2,3.3c-2.5,1.6-4.6,3.7-6.3,6.2c-1.7,2.5-2.9,5.2-3.5,8.1c-0.6,2.9-0.6,5.9-0.1,8.9c0.5,2.9,1.7,5.7,3.3,8.2
	c1.6,2.5,3.7,4.6,6.2,6.3c2.5,1.7,5.2,2.9,8.1,3.5c50.4,10,71.3,28,71.3,35.1c0,12.9-54.4,44.4-155.6,44.4S74.3,376.1,74.3,363.2
	c0-7.1,20.9-25.1,71.3-36c2.9-0.6,5.7-1.8,8.1-3.5c2.5-1.7,4.6-3.8,6.2-6.3c1.6-2.5,2.8-5.3,3.3-8.2c0.6-2.9,0.5-5.9-0.1-8.9
	c-0.6-2.9-1.8-5.7-3.5-8.1c-1.7-2.5-3.8-4.6-6.3-6.2c-2.5-1.6-5.3-2.8-8.2-3.3s-5.9-0.5-8.9,0.1c-67.6,15.6-106.4,44.7-106.4,80.4
	c0,58.4,100.7,88.9,200,88.9s200-30.4,200-88.9C429.8,327.4,391,298.3,323.4,283.6z"/>
</svg>
