<?xml version="1.0" encoding="UTF-8"?>
<svg width="20px" height="20px" viewBox="0 0 20 20" version="1.1" xmlns="http://www.w3.org/2000/svg" xmlns:xlink="http://www.w3.org/1999/xlink">
    <!-- Generator: Sketch 64 (93537) - https://sketch.com -->
    <title>Fill 5</title>
    <desc>Created with Sketch.</desc>
    <g id="Versión-Mobile" stroke="none" stroke-width="1" fill="none" fill-rule="evenodd">
        <g id="15M---Error---Cartera-vendida" transform="translate(-108.000000, -521.000000)" fill="#FFFFFF">
            <g id="Group" transform="translate(37.000000, 506.000000)">
                <g id="Group-4">
                    <g id="Group-6" transform="translate(71.000000, 15.000000)">
                        <g id="Fill-5">
                            <path d="M14.5166582,11.9851525 C14.2689457,11.861201 13.0510973,11.26211 12.8240036,11.1794916 C12.5969576,11.0968731 12.4318636,11.0555877 12.2666743,11.3034907 C12.1015802,11.5513461 11.6268217,12.1091516 11.4823466,12.2743409 C11.3378714,12.439673 11.1933962,12.4603396 10.9456837,12.3363405 C10.6979712,12.212389 9.89983405,11.9509146 8.95369795,11.107254 C8.21732226,10.4506873 7.72013533,9.63974067 7.57566017,9.39183768 C7.43118502,9.14388707 7.56027933,9.00988802 7.68432606,8.88641272 C7.79570622,8.77550875 7.93199096,8.59722431 8.05584722,8.45260629 C8.17970348,8.30798828 8.2209889,8.2047033 8.30351212,8.03946638 C8.38608296,7.87418185 8.34484516,7.72956384 8.28289322,7.60561234 C8.2209889,7.48166085 7.72561148,6.26281241 7.51913677,5.76700643 C7.31809059,5.28415273 7.11390157,5.3494856 6.96185503,5.34191422 C6.81752273,5.3347238 6.65219058,5.3332 6.4870489,5.3332 C6.32195484,5.3332 6.05357581,5.39515194 5.82652981,5.64305493 C5.59948381,5.89095792 4.95958362,6.4900965 4.95958362,7.70889732 C4.95958362,8.92774575 5.84714871,10.1052612 5.97105259,10.2705457 C6.09490885,10.4358302 7.71770678,12.9370028 10.2025462,14.0097095 C10.793542,14.2648029 11.2550148,14.4171351 11.6147266,14.5313248 C12.2081509,14.719752 12.7480994,14.6931331 13.1749059,14.6294193 C13.6508073,14.5583246 14.6405145,14.0303284 14.8469416,13.4519039 C15.053321,12.8734795 15.053321,12.3776735 14.9914167,12.2743409 C14.9294648,12.1711035 14.7643231,12.1091516 14.5166582,11.9851525 M9.99692859,18.1543941 L9.99359528,18.1543941 C8.51503442,18.1537751 7.0648543,17.7567303 5.7997681,17.0061642 L5.49886548,16.8276417 L2.38026871,17.645493 L3.21269134,14.6058481 L3.01674036,14.2942312 C2.19193672,12.9826692 1.75627317,11.4668705 1.75693907,9.91050064 C1.75874934,5.36877118 5.45515151,1.67379757 10.0002143,1.67379757 C12.2010557,1.6746547 14.2698981,2.53260096 15.8256012,4.08954222 C17.3813044,5.6465311 18.237584,7.71613536 18.2367275,9.91711964 C18.2348698,14.4591348 14.5385152,18.1543941 9.99692859,18.1543941 M17.0096404,2.90645543 C15.1379395,1.0331831 12.6488144,0.00104761156 9.99683336,0 C4.53258667,0 0.0852851051,4.44553967 0.0831422633,9.90983398 C0.0823803639,11.6565358 0.538900913,13.3615236 1.40641853,14.8644176 L-2.48689958e-14,20 L5.25539103,18.6219146 C6.70338069,19.4114328 8.33365476,19.8274774 9.992881,19.8281917 L9.99692859,19.8281917 L9.99697621,19.8281917 C15.4606515,19.8281917 19.908334,15.3820806 19.9105252,9.91773868 C19.9115721,7.26966236 18.8813413,4.77968015 17.0096404,2.90645543" id="Fill-4"></path>
                        </g>
                    </g>
                </g>
            </g>
        </g>
    </g>
</svg>