<?xml version="1.0" encoding="utf-8"?>
<!-- Generator: Adobe Illustrator 22.0.1, SVG Export Plug-In . SVG Version: 6.00 Build 0)  -->
<svg version="1.1" id="Layer_1" xmlns="http://www.w3.org/2000/svg" xmlns:xlink="http://www.w3.org/1999/xlink" x="0px" y="0px"
	 viewBox="0 0 512 512" style="enable-background:new 0 0 512 512;" xml:space="preserve">
<style type="text/css">
	.st0{fill:#07BBBB;}
</style>
<g id="XMLID_1490_">
	<g id="XMLID_330_">
		<path id="XMLID_375_" class="st0" d="M478,388h-30c-6.6,0-12.8,1.9-18,5.2c1.3-6.2,2-12.6,2-19.1c0-50.9-41.4-92.3-92.3-92.3
			h-62.5c-9.7,0-17.6-7.9-17.6-17.6v-16.5c27.6-15.4,46.4-44.9,46.4-78.7V74.7c7.5-8.9,11-15.3,13-26.7V37.7c0-5.5-4.5-10-10-10
			H188.3C154,27.7,126,55.7,126,90v79c0,33.8,18.7,63.3,46.4,78.7v16.5c0,9.7-7.9,17.6-17.6,17.6H92.3C41.4,281.8,0,323.2,0,374
			c0,17.6,4.9,34.5,14.3,49.3c-4.3,11.2-6.4,23-6.4,35.2c0,16.9,4.3,33.7,12.6,48.4c1.8,3.3,5.2,5.1,8.7,5.1c1.6,0,3.3-0.4,4.9-1.3
			c4.8-2.7,6.5-8.8,3.9-13.6c-6.6-11.7-10-25.1-10-38.6c0-11.2,2.3-22.1,6.9-32.3c1.5-3.3,1.1-7-1-9.9C24.7,403.9,20,389.3,20,374
			c0-39.8,32.4-72.3,72.3-72.3h9.7v55c0,19.2-4.3,38.5-12.5,55.8c-0.6,1.3-1,2.8-1,4.3V502c0,5.5,4.5,10,10,10s10-4.5,10-10v-82.9
			c8.8-19.5,13.5-41,13.5-62.3v-55h20v25.6c0,40.8,33.2,74,74,74s74-33.2,74-74v-25.6h20v55c0,10.6,1.1,21,3.3,31.2h-29.5
			c-18.7,0-34,15.3-34,34v56c0,18.7,15.3,34,34,34h29.6c17,0,31.2-12.6,33.6-29h53.3c-1.6,4.9-3.6,9.6-6.1,14.1
			c-2.7,4.8-1,10.9,3.9,13.6c1.5,0.9,3.2,1.3,4.9,1.3c3.5,0,6.9-1.8,8.7-5.1c2.4-4.3,4.5-8.8,6.2-13.4c5.6,11,17.1,18.5,30.2,18.5
			h30c18.7,0,34-15.3,34-34v-56C512,403.3,496.7,388,478,388L478,388z M286,82c0,19.6,0,24.5,0,24.5H146V82l0,7.7
			c0.2-23.2,19.1-42,42.3-42H299C299,47.7,286,62.4,286,82z M146,169v-42.5h140V169c0,38.6-31.4,70-70,70S146,207.6,146,169z
			 M216,381.4c-29.8,0-54-24.2-54-54v-26.3c17.3-3.4,30.4-18.6,30.4-36.9v-8.3c7.5,2.1,15.5,3.2,23.6,3.2s16.1-1.1,23.6-3.2v8.3
			c0,18.3,13.1,33.5,30.4,36.9v26.3C270,357.2,245.8,381.4,216,381.4z M339.7,301.8c39.8,0,72.3,32.4,72.3,72.3
			c0,15.3-4.7,29.9-13.7,42.3c-0.2,0.2-0.3,0.5-0.4,0.7H347c-1.2-7.8-5-14.8-10.6-20c-4.2-13-6.4-26.5-6.4-40.3v-55L339.7,301.8
			L339.7,301.8z M327.3,478c0,7.7-6.3,14-14,14h-29.6c-7.7,0-14-6.3-14-14v-56c0-7.7,6.3-14,14-14h29.6c7.7,0,14,6.3,14,14
			L327.3,478L327.3,478z M347.3,437H414v26h-66.7V437z M492,478c0,7.7-6.3,14-14,14h-30c-7.7,0-14-6.3-14-14v-56c0-7.7,6.3-14,14-14
			h30c7.7,0,14,6.3,14,14V478z"/>
	</g>
</g>
</svg>
