<?xml version="1.0" encoding="utf-8"?>
<!-- Generator: Adobe Illustrator 22.0.1, SVG Export Plug-In . SVG Version: 6.00 Build 0)  -->
<svg version="1.1" id="Capa_1" xmlns="http://www.w3.org/2000/svg" xmlns:xlink="http://www.w3.org/1999/xlink" x="0px" y="0px"
	 viewBox="0 0 512 512" style="enable-background:new 0 0 512 512;" xml:space="preserve">
<style type="text/css">
	.st0{fill:#07BBBB;}
</style>
<g>
	<g>
		<path class="st0" d="M212.7,295.6c-3.9-3.9-10.2-3.9-14.1,0c-10.4,10.4-27.4,10.4-37.9,0c-3.9-3.9-10.2-3.9-14.1,0
			c-3.9,3.9-3.9,10.2,0,14.1c9.1,9.1,21.1,13.7,33.1,13.7s23.9-4.6,33.1-13.7C216.6,305.8,216.6,299.5,212.7,295.6z"/>
	</g>
</g>
<g>
	<g>
		<path class="st0" d="M365.4,295.6c-3.9-3.9-10.2-3.9-14.1,0c-10.4,10.4-27.4,10.4-37.9,0c-3.9-3.9-10.2-3.9-14.1,0
			c-3.9,3.9-3.9,10.2,0,14.1c9.1,9.1,21.1,13.7,33.1,13.7c12,0,24-4.6,33.1-13.7C369.3,305.8,369.3,299.5,365.4,295.6z"/>
	</g>
</g>
<g>
	<g>
		<path class="st0" d="M469,286.7c0-22.3-17.1-40.8-38.9-43V228c0-58.4-28.9-110.2-73.2-141.8C349.3,36.8,306.7,0,256.1,0
			C205.5,0,163,36.8,155.3,86.2c-44.3,31.6-73.2,83.4-73.2,141.8v15.7c-21.9,2.1-39.1,20.6-39.1,43l0,25.3
			c0,11.6,4.5,22.5,12.6,30.6c8.2,8.2,19.1,12.7,30.6,12.7h4.8c22,75.9,82.7,136.5,162.5,156.4c0.8,0.2,1.6,0.3,2.4,0.3
			c0.8,0,1.6-0.1,2.4-0.3l0.2,0c18.3-4.6,36-11.4,52.5-20.3c4.9-2.6,6.7-8.7,4.1-13.5c-2.6-4.9-8.7-6.7-13.5-4.1
			c-14.4,7.7-29.7,13.7-45.6,17.9c-90.7-23.8-153.9-105.4-153.9-199.5v-12.8l4.3-1c56.9-12.9,111.8-36.1,160.8-68
			c33.7,43.9,86,69.9,141.7,69.9h1.1v11.8c0,33.9-8.5,67.6-24.5,97.5c-2.6,4.9-0.8,10.9,4.1,13.5c1.5,0.8,3.1,1.2,4.7,1.2
			c3.6,0,7-1.9,8.8-5.3c7.5-13.9,13.4-28.6,17.8-43.7h4.7c11.6,0,22.4-4.5,30.6-12.7c8.2-8.2,12.7-19.1,12.6-30.6L469,286.7z
			 M86.2,335.3L86.2,335.3c-6.2,0-12.1-2.4-16.5-6.8c-4.4-4.4-6.8-10.3-6.8-16.5l0-25.3c0-11.4,8.3-20.9,19.1-22.9v28.4
			C82.1,306.9,83.5,321.3,86.2,335.3L86.2,335.3L86.2,335.3z M256.1,20c34.3,0,64.1,21.1,76.2,51.6c-23-11.3-48.9-17.6-76.2-17.6
			s-53.2,6.3-76.2,17.6C192.1,41.1,221.8,20,256.1,20z M410.1,256v4.4H409c-49.1,0-95.2-22.7-125.2-61.1c6.9-4.9,13.7-10,20.4-15.2
			c4.3-3.4,5.1-9.7,1.6-14c-3.4-4.3-9.7-5.1-14-1.6C236.5,212,170.9,243.4,102.1,259v-3v-28c0-84.9,69.1-154,154-154
			s154,69.1,154,154L410.1,256L410.1,256z M442.3,328.5c-4.4,4.4-10.2,6.8-16.3,6.8c2.8-14.2,4.2-28.7,4.2-43.2v-28.3
			c10.7,2.1,18.9,11.5,18.9,22.8l0,25.3C449.1,318.3,446.7,324.1,442.3,328.5z"/>
	</g>
</g>
<g>
	<g>
		<path class="st0" d="M435.5,469.2L380.2,414L359,358.4c-3.3-8.6-12.2-13.6-21.3-12c-37.7,6.9-67.7,36.8-74.5,74.5l0,0.2
			c-1.6,8.8,3.2,17.6,11.5,21.1l54.5,22.6l44.2,44.2c2,2,4.5,2.9,7.1,2.9s5.1-1,7.1-2.9c3.9-3.9,3.9-10.2,0-14.1l-38.6-38.6
			l22.7-22.7l49.7,49.7c3.9,3.9,10.2,3.9,14.1,0C439.4,479.4,439.4,473.1,435.5,469.2z M332.5,444.6L283,424.1
			c5.5-29.1,28.6-52.2,57.6-57.8L360,417L332.5,444.6z"/>
	</g>
</g>
</svg>
