<?xml version="1.0" encoding="utf-8"?>
<!-- Generator: Adobe Illustrator 22.0.1, SVG Export Plug-In . SVG Version: 6.00 Build 0)  -->
<svg version="1.1" id="Capa_1" xmlns="http://www.w3.org/2000/svg" xmlns:xlink="http://www.w3.org/1999/xlink" x="0px" y="0px"
	 viewBox="0 0 24 25" style="enable-background:new 0 0 24 25;" xml:space="preserve">
<style type="text/css">
	.st0{fill:#07BBBB;}
</style>
<title>icono-cerrar-modal-small</title>
<desc>Created with Sketch.</desc>
<path class="st0" d="M13.4,12l6.5-6.5c0.3-0.3,0.2-0.7-0.3-1.2c-0.4-0.4-0.9-0.5-1.2-0.3L12,10.6L5.5,4.1C5.2,3.8,4.8,3.9,4.3,4.3
	C3.9,4.7,3.8,5.2,4.1,5.5l6.5,6.5l-6.5,6.5c-0.3,0.3-0.2,0.7,0.3,1.2c0.4,0.4,0.9,0.5,1.2,0.3l6.5-6.5l6.5,6.5
	c0.3,0.3,0.7,0.2,1.2-0.3c0.4-0.4,0.5-0.9,0.3-1.2L13.4,12z"/>
</svg>
