<?xml version="1.0" encoding="utf-8"?>
<!-- Generator: Adobe Illustrator 22.0.1, SVG Export Plug-In . SVG Version: 6.00 Build 0)  -->
<svg version="1.1" id="Layer_1" xmlns="http://www.w3.org/2000/svg" xmlns:xlink="http://www.w3.org/1999/xlink" x="0px" y="0px"
	 viewBox="0 0 512 512" style="enable-background:new 0 0 512 512;" xml:space="preserve">
<style type="text/css">
	.st0{fill:#07BBBB;stroke:#07BBBB;stroke-width:4;stroke-miterlimit:10;}
</style>
<path class="st0" d="M352.9,447.6v-22.9c51.8-32.6,83.1-89.6,82.9-150.8v-51c0-3.9-3.1-7-7-7h-16.1c-13.2-42-58-65.3-99.9-52.1
	c-14.9,4.7-28.1,13.7-38,25.8c-16.3-7.3-33.9-11-51.8-11c-24-0.2-47.5,6.6-67.5,19.7l-58.1-131C91,52.9,74.3,46.5,59.9,52.8
	S39.1,75.9,45.5,90.3l0,0l55.7,125.6H85.4c-3.9,0-7,3.1-7,7v51c-0.2,61.2,31.1,118.1,82.8,150.8v22.9l0.1,7.2c0,3.8,3.1,6.8,6.9,6.8
	h180.4c2.4,0,4.3-1.9,4.3-4.3V447.6z M273.7,204.6c3.1,1.6,7,0.7,9-2.2c20.6-29.8,61.6-37.3,91.4-16.7c10.8,7.4,19.1,17.9,23.8,30.1
	H155.5c0.3-0.3,0.7-0.6,1.1-0.9c0.3-0.2,0.5-0.4,0.8-0.6c18.8-14.5,42-22.1,65.7-21.8C240.6,192.5,258,196.6,273.7,204.6
	L273.7,204.6z M58.3,84.6c-3.2-7.3,0-15.8,7.3-19c1.8-0.8,3.8-1.2,5.9-1.2c5.7,0,10.9,3.4,13.2,8.6l59.5,134.3
	c-3,2.7-5.8,5.6-8.4,8.6h-19.3L58.3,84.6z M92.4,229.9h329.4v37H92.4V229.9z M92.6,280.9h329c-2.1,54.5-31.2,104.4-77.6,133H170.2
	C123.8,385.3,94.7,335.4,92.6,280.9L92.6,280.9z M175.2,427.9h163.7v19.7H175.2V427.9z"/>
</svg>
