<?xml version="1.0" encoding="utf-8"?>
<!-- Generator: Adobe Illustrator 22.0.1, SVG Export Plug-In . SVG Version: 6.00 Build 0)  -->
<svg version="1.1" id="Capa_1" xmlns="http://www.w3.org/2000/svg" xmlns:xlink="http://www.w3.org/1999/xlink" x="0px" y="0px"
	 viewBox="0 0 512 512" style="enable-background:new 0 0 512 512;" xml:space="preserve">
<style type="text/css">
	.st0{fill:#07BBBB;}
</style>
<path class="st0" d="M396.2,285l-46.9-18.1l-23.9-23.9c-1.6-1.6-3.7-2.3-5.8-2.2v-20.4c11.3-12,19.4-27.2,22.5-44.3
	c0-0.2,0.3-0.4,0.5-0.5c2.1,0.1,4.2,0,6.3-0.4c10.9-2.2,18.8-12.4,18.8-24.1v-6.2c0-7-2.9-13.4-7.7-17.9c7.7-41.1,1.6-74.6-17.7-97
	C323.7,8.4,293.8-1.8,255.6,0.3c-35.8,1.9-58.7,18.6-65.5,24.3c-9.5,1.2-37.8,8-37.8,47.3c0,22.2,3.7,40.6,6.2,50.6
	c-8.5,3.7-14.2,12.4-14.2,22.4v6.2c0,11.7,7.9,21.9,18.8,24.1c2.1,0.4,4.2,0.6,6.3,0.4c0.2,0.1,0.4,0.3,0.5,0.5
	c3.2,17.2,11.2,32.4,22.5,44.3v20.4c-2.1-0.1-4.2,0.6-5.8,2.2l-23.9,23.9L115.8,285c-22.2,8.6-36.5,30.3-35.5,54.1l6.6,165.7
	c0.2,4,3.5,7.2,7.5,7.2c0.1,0,0.2,0,0.3,0c4.1-0.2,7.4-3.7,7.2-7.8l-6.6-165.7c-0.2-4.9,0.5-9.6,1.9-14.1l27.3,27.3
	c7.7,7.7,11.9,17.9,11.9,28.7v124.1c0,4.1,3.4,7.5,7.5,7.5c4.1,0,7.5-3.4,7.5-7.5V380.4c0-14.9-5.8-28.8-16.3-39.3l-30.3-30.3
	c4.3-5.1,9.9-9.3,16.5-11.8l44.1-17l33.6,50.4c3.9,5.9,10.2,9.7,17.3,10.4c0.8,0.1,1.6,0.1,2.3,0.1c4.7,0,9.3-1.4,13.2-4.1
	l-7.2,165.5c-0.2,4.1,3,7.6,7.2,7.8c0.1,0,0.2,0,0.3,0c4,0,7.3-3.1,7.5-7.2l6.7-152.9h19.8l6.7,152.9c0.2,4,3.5,7.2,7.5,7.2
	c0.1,0,0.2,0,0.3,0c4.1-0.2,7.3-3.7,7.2-7.8l-7.2-165.5c3.9,2.7,8.5,4.1,13.2,4.1c0.8,0,1.6,0,2.3-0.1c7-0.7,13.3-4.5,17.3-10.4
	l33.6-50.4l44.1,17c6.6,2.5,12.2,6.6,16.5,11.8L377,341.1c-10.5,10.5-16.3,24.5-16.3,39.3v124.1c0,4.1,3.4,7.5,7.5,7.5
	c4.1,0,7.5-3.4,7.5-7.5V380.4c0-10.8,4.2-21,11.9-28.7l27.3-27.3c1.4,4.4,2.1,9.2,1.9,14.1l-6.6,165.7c-0.2,4.1,3.1,7.6,7.2,7.8
	c0.1,0,0.2,0,0.3,0c4,0,7.3-3.2,7.5-7.2l6.6-165.7C432.7,315.3,418.5,293.5,396.2,285z M193.2,39.3c1.9,0,3.8-0.8,5.2-2.1
	c0.2-0.2,21.2-20,58-22c33.4-1.8,59.1,6.7,74.6,24.5c15.7,18.1,20.8,46,14.9,80.9c-2.7-0.2-5.8,0-8.8,0.6l-8.4-20.1
	c-1.4-3.5-5.2-5.3-8.8-4.4c-0.8,0.2-80.6,20.4-114.2-21.4c-2.6-3.2-7.3-3.7-10.5-1.2c-3.2,2.6-3.7,7.3-1.1,10.5
	c3.4,4.3,7.2,8,11.3,11.3c-3.5,7.5-10.8,25.5-21.5,30.8c-2.9-2.7-6.4-4.5-10.1-5.5c-2.2-8.1-6.4-26.6-6.4-49.4
	C167.3,40.6,190.6,39.3,193.2,39.3z M184.6,173.3c-1.4-7.7-8.5-13.3-16.2-12.7c-0.7,0.1-1.5,0-2.3-0.2c-3.9-0.8-6.8-4.8-6.8-9.4
	v-6.2c0-4.6,3-8.5,6.9-9.2c3.3-0.6,6.4,0.6,8.4,3.2c1.4,1.9,3.3,3.2,5.5,3.9c3.2,1,6.7,0.4,9.4-1.5c17.2-11.9,23.9-28.5,28.2-37
	c35.5,19,82.5,11.9,99.5,8.5l6.6,15.8c2.5,5.9,8.8,9.2,15,7.7c2.8-0.6,5.6-0.7,6.9-0.5c4,0.8,6.9,4.7,6.9,9.1v6.2
	c0,4.6-2.9,8.6-6.8,9.4c-0.8,0.2-1.5,0.2-2.3,0.2c-7.7-0.6-14.8,5-16.2,12.7c-6.3,34.4-36.3,59.4-71.4,59.4
	C221,232.7,190.9,207.7,184.6,173.3z M224.4,325.3c-1.8,1.8-4.3,2.7-6.9,2.5c-2.6-0.3-4.8-1.6-6.3-3.8l-33.8-50.8l14.7-14.7
	l52.8,46.2L224.4,325.3z M246.8,336.9l0.6-13.3l8.7-8.7l8.7,8.7l0.6,13.3H246.8z M256,294.4l-48.6-42.5V233
	c14,9.3,30.8,14.7,48.6,14.7c17.9,0,34.6-5.4,48.6-14.7v18.9L256,294.4z M300.7,324c-1.4,2.1-3.7,3.5-6.3,3.8
	c-2.6,0.3-5.1-0.6-6.9-2.5L267,304.7l52.8-46.2l14.7,14.7L300.7,324z"/>
</svg>
