<?xml version="1.0" encoding="utf-8"?>
<!-- Generator: Adobe Illustrator 22.0.1, SVG Export Plug-In . SVG Version: 6.00 Build 0)  -->
<svg version="1.1" id="Capa_1" xmlns="http://www.w3.org/2000/svg" xmlns:xlink="http://www.w3.org/1999/xlink" x="0px" y="0px"
	 viewBox="0 0 8 6" style="enable-background:new 0 0 8 6;" xml:space="preserve">
<style type="text/css">
	.st0{fill:#07BBBB;}
</style>
<title>icon-down-arrow</title>
<desc>Created with Sketch.</desc>
<path class="st0" d="M4,2.5l2.9,3C7,5.6,7.1,5.6,7.3,5.6c0.1,0,0.2,0,0.3-0.1l0.3-0.3c0.1-0.1,0.1-0.2,0.1-0.3s0-0.2-0.1-0.3L4.3,1
	C4.2,1,4.1,0.9,4,0.9C3.9,0.9,3.8,1,3.7,1L0.2,4.6C0.1,4.7,0.1,4.8,0.1,4.9c0,0.1,0,0.2,0.1,0.3l0.3,0.3c0.2,0.2,0.4,0.2,0.6,0
	L4,2.5L4,2.5z"/>
</svg>
