<?xml version="1.0" encoding="utf-8"?>
<!-- Generator: Adobe Illustrator 22.0.1, SVG Export Plug-In . SVG Version: 6.00 Build 0)  -->
<svg version="1.1" id="Capa_1" xmlns="http://www.w3.org/2000/svg" xmlns:xlink="http://www.w3.org/1999/xlink" x="0px" y="0px"
	 viewBox="0 0 970.3 603.5" style="enable-background:new 0 0 970.3 603.5;" xml:space="preserve">
<style type="text/css">
	.st0{fill:#07BBBB;}
</style>
<g>
	<path class="st0" d="M790.2,57.1c-15.5-20.5-33.8-35.5-55-45C714,2.6,691.8-0.6,668.6,2.4c-23.2,3-46.1,13-68.6,30
		c-15.2,11.5-28.2,27.3-39,47.4c-10.8,20.1-17.7,41.2-20.8,63.3c-1.4,9.9-2,18.9-1.8,27.1c0.2,8.2,2.4,15.1,6.7,20.7
		c5.5,7.3,13.4,11.4,23.6,12.2c10.2,0.8,19-1.5,26.3-7c3.3-2.5,6.5-5.9,9.4-10.2c3-4.3,4.4-10.6,4.4-18.9c-0.4-16.3,2-31.5,7-45.4
		c5.1-14,12.4-24.5,22-31.8c9.3-7,19.8-11,31.4-12c11.7-1,23.2,0.7,34.4,5.2c11.2,4.5,20.7,11.9,28.4,22.2
		c8.7,11.6,14.5,26.8,17.4,45.7c2.8,18.9,3.2,39.3,1,61.2l-20.9,197.4c-1.2,10.8,1.3,20.3,7.5,28.6c6.3,8.3,13.9,13.2,22.8,14.7
		c9,1.6,17.7-0.9,26.4-7.4l168.8-127.5c7.9-6,12.6-13.5,14-22.7c1.4-9.1-0.7-17.5-6.5-25.1c-6-7.9-13.7-12.6-22.9-13.9
		c-9.3-1.3-17.9,1.1-25.9,7l-110.2,87.2c-6.7,5.3-16.2-1.5-13.3-9.6C812.4,279.9,845.4,143.7,790.2,57.1z"/>
	<g>
		<path class="st0" d="M10.4,201.9c5.8,4.6,15.8,6.8,29.9,6.8c14.1,0,24.3-2.2,30.5-6.5c6.2-4.4,9.3-12.5,9.3-24.6v-22.4
			c0-11.6-2.9-19.7-8.7-24.3c-5.8-4.6-16-6.8-30.5-6.8c-13.3,0-23.1,2.2-29.5,6.5c-6.4,4.4-9.6,12.6-9.6,24.6v22.4
			C1.6,189.3,4.5,197.4,10.4,201.9z"/>
		<path class="st0" d="M575.2,244.9c-10.8,0-19.7,3.6-26.7,10.9c-4.9,5.1-8.1,11-9.6,17.7c-0.7,3-1,6-1,9.3v11.9
			c0,127-102.9,265.5-229.9,265.5S78.2,417.4,78.2,290.5v-7.6c0-3.3-0.4-6.4-1-9.3c-1.5-6.8-4.7-12.7-9.6-17.7
			c-7.1-7.3-16-10.9-26.8-10.9c-10.8,0-19.7,3.6-26.7,10.9C7,263.1,3.5,272.1,3.5,282.9v7.6c0,35.1,6,73,16.9,104.4
			c41.4,119,154.5,204.5,287.6,204.5c133.1,0,246.2-85.4,287.6-204.5c10.9-31.4,16.9-65,16.9-100.1v-11.9c0-10.8-3.5-19.8-10.6-27.1
			C594.9,248.6,586,244.9,575.2,244.9z"/>
	</g>
</g>
</svg>
