<?xml version="1.0" encoding="utf-8"?>
<!-- Generator: Adobe Illustrator 24.1.0, SVG Export Plug-In . SVG Version: 6.00 Build 0)  -->
<svg version="1.1" id="Capa_1" xmlns="http://www.w3.org/2000/svg" xmlns:xlink="http://www.w3.org/1999/xlink" x="0px" y="0px"
	 viewBox="0 0 1024 1024" style="enable-background:new 0 0 1024 1024;" xml:space="preserve">
<style type="text/css">
	.st0{fill:#FFFFFF;}
</style>
<g id="icomoon-ignore">
</g>
<path class="st0" d="M404.9,512.2l391.2-383.1c10.8-10.5,16.7-24.6,16.7-39.6s-5.9-29.1-16.7-39.6l-34.3-33.6
	C751.1,5.8,736.7,0,721.4,0S691.7,5.8,681,16.4L215.1,472.5c-10.8,10.6-16.7,24.7-16.7,39.7c0,15.1,5.9,29.2,16.7,39.8l465.4,455.7
	c10.8,10.6,25.1,16.4,40.5,16.4c15.3,0,29.7-5.8,40.5-16.4l34.3-33.6c22.3-21.8,22.3-57.4,0-79.2L404.9,512.2L404.9,512.2z"/>
</svg>
