<?xml version="1.0" encoding="utf-8"?>
<!-- Generator: Adobe Illustrator 22.0.1, SVG Export Plug-In . SVG Version: 6.00 Build 0)  -->
<svg version="1.1" id="Capa_1" xmlns="http://www.w3.org/2000/svg" xmlns:xlink="http://www.w3.org/1999/xlink" x="0px" y="0px"
	 viewBox="0 0 469.3 469.3" style="enable-background:new 0 0 469.3 469.3;" xml:space="preserve">
<style type="text/css">
	.st0{fill:#FFFFFF;}
</style>
<g>
	<g>
		<path class="st0" d="M283,438.8l88.1-80.2c15.9-15.9,15.9-41.7-0.1-57.7c-5.1-5.1-11.2-8.5-17.6-10.3c12.2-16,11-39-3.7-53.7
			c-5.1-5.1-11.2-8.5-17.6-10.3c12.2-16,11-39-3.7-53.7c-5-5-10.9-8.4-17.2-10.2l37.8-37.8c15.9-15.9,15.9-41.7-0.1-57.7
			c-15.9-15.9-41.7-15.9-57.6,0L145.9,212.3l-13.5-86.1c-3.3-23.3-23.6-40.8-47.1-40.8c-17.6,0-32,14.4-32,32v201.2
			c0,31.3,12.2,60.8,34.4,83l33.6,33.6c22.1,22.1,51.6,34.3,82.9,34.3C233.3,469.3,261.4,458.5,283,438.8z M136.3,419.9l-33.6-33.6
			c-18.1-18.1-28.1-42.2-28.1-67.9V117.3c0-5.9,4.8-10.7,10.7-10.7c13,0,24.1,9.7,26,22.7l16.8,107c0.6,4,3.4,7.2,7.2,8.5
			c3.8,1.2,8,0.2,10.8-2.6L306.3,82.2c7.6-7.6,19.9-7.6,27.6,0.1c3.8,3.8,5.7,8.8,5.7,13.7s-1.9,9.9-5.7,13.7L227.1,216.5
			c-4.2,4.2-4.2,10.9,0,15.1c2.1,2.1,4.8,3.1,7.6,3.1s5.5-1,7.6-3.1l43.6-43.6c7.6-7.6,19.9-7.6,27.6,0.1c7.6,7.6,7.6,19.9,0,27.5
			l-43.6,43.6c-4.2,4.2-4.2,10.9,0,15.1c2.1,2.1,4.8,3.1,7.6,3.1c2.7,0,5.5-1,7.6-3.1l22.3-22.3c7.6-7.6,19.9-7.6,27.6,0.1
			c7.6,7.6,7.6,19.9,0,27.5l-22.4,22.4c0,0,0,0,0,0l0,0c0,0,0,0,0,0c0,0,0,0,0,0v0c0,0,0,0,0,0c-4,4.2-3.9,10.8,0.2,14.9
			c4.2,4.2,10.9,4.2,15.1,0l0.9-0.9c3.7-3.7,8.6-5.7,13.7-5.7s10,2,13.8,5.8c7.6,7.6,7.5,19.9,0.4,27.1l-87.8,79.9
			C250.9,439.1,228,448,204.1,448C178.5,448,154.5,438,136.3,419.9z"/>
	</g>
</g>
<g>
	<g>
		<path class="st0" d="M359.4,183.4C393.8,167.9,416,133.5,416,96c0-52.9-43.1-96-96-96c-37.5,0-71.9,22.2-87.4,56.6
			c-0.6,1.4-0.9,2.9-0.9,4.4c0,4.1,2.3,7.9,6.3,9.7c5.4,2.4,11.7,0,14.1-5.3c12.1-26.8,38.8-44.1,67.9-44.1
			c41.2,0,74.7,33.5,74.7,74.7c0,29.2-17.3,55.9-44.1,67.9c-5.4,2.4-7.8,8.7-5.3,14.1C347.7,183.4,354,185.8,359.4,183.4z"/>
	</g>
</g>
</svg>
