<?xml version="1.0" encoding="utf-8"?>
<!-- Generator: Adobe Illustrator 22.0.1, SVG Export Plug-In . SVG Version: 6.00 Build 0)  -->
<svg version="1.1" id="Capa_1" xmlns="http://www.w3.org/2000/svg" xmlns:xlink="http://www.w3.org/1999/xlink" x="0px" y="0px"
	 viewBox="0 0 44 26" style="enable-background:new 0 0 44 26;" xml:space="preserve">
<style type="text/css">
	.st0{fill:#07BBBB;}
</style>
<desc>Created with Sketch.</desc>
<g id="Symbols">
	<g id="Movistar_x2F_Header_x2F_Responsive" transform="translate(-266.000000, -17.000000)">
		<g id="Cabecera">
		</g>
	</g>
</g>
<g id="Menu-ICON" transform="translate(272.000000, 20.000000)">
	<g id="Group">
		<g id="Path-3">
			<path class="st0" d="M-234-1h-32c-0.6,0-1-0.4-1-1s0.4-1,1-1h32c0.6,0,1,0.4,1,1S-233.4-1-234-1z"/>
		</g>
		<g id="Path-3_8_">
			<path class="st0" d="M-234-15h-32c-0.6,0-1-0.4-1-1c0-0.6,0.4-1,1-1h32c0.6,0,1,0.4,1,1C-233-15.4-233.4-15-234-15z"/>
		</g>
		<g id="Path-3_7_">
			<path class="st0" d="M-234-8h-32c-0.6,0-1-0.4-1-1s0.4-1,1-1h32c0.6,0,1,0.4,1,1S-233.4-8-234-8z"/>
		</g>
	</g>
</g>
</svg>
