<?xml version="1.0" encoding="utf-8"?>
<!-- Generator: Adobe Illustrator 22.0.1, SVG Export Plug-In . SVG Version: 6.00 Build 0)  -->
<svg version="1.1" id="Layer_1" xmlns="http://www.w3.org/2000/svg" xmlns:xlink="http://www.w3.org/1999/xlink" x="0px" y="0px"
	 viewBox="0 0 512 512" style="enable-background:new 0 0 512 512;" xml:space="preserve">
<style type="text/css">
	.st0{fill:#07BBBB;}
</style>
<g>
	<g>
		<path class="st0" d="M491.8,348.6L266.7,229.7v-15c0.1,0,0.2-0.1,0.3-0.1c35.5-8.8,59.3-30.9,59.3-59.3
			c0-32.7-26.5-59.3-59.3-59.3c-30.2,0-56.5,22.1-59.1,51.8c-0.1,0.5-0.1,0.9-0.1,1.4c0,0.1,0,0.1,0,0.2c0,5.9,4.8,10.7,10.7,10.7
			s10.7-4.8,10.7-10.7h0.1c0.9-9.2,5.3-15.8,9.3-20c7.3-7.6,17.7-12,28.6-12c20.9,0,37.9,17,37.9,37.9c0,8-3.3,15.3-9.9,21.8
			c-7.7,7.5-19.2,13.4-33.1,16.8c0,0-16.2,5-16.5,5.1v3.7h0v27L20.2,348.6C8.1,354.8,0,366.5,0,379.9C0,399.8,18,416,40.2,416
			c0.4,0,1.2,0,1.2,0h429.1c0,0,0.8,0,1.2,0c22.2,0,40.2-16.2,40.2-36.1C512,366.5,503.9,354.8,491.8,348.6z M471.8,394.7h-1.2H41.4
			h-1.2c-10.2,0-18.9-6.8-18.9-14.8c0-4.9,3.2-9.6,8.7-12.4l0.1,0l0.1-0.1L256,248.1l225.8,119.3l0.1,0.1l0.1,0
			c5.4,2.8,8.7,7.4,8.7,12.4C490.7,387.9,482,394.7,471.8,394.7z"/>
	</g>
</g>
</svg>
